<svg width="30" height="30" viewBox="0 0 30 30" fill="none" xmlns="http://www.w3.org/2000/svg">
<path d="M13.5937 24.125L5.34375 15.875C5.21875 15.75 5.13 15.6145 5.0775 15.4687C5.025 15.3229 4.99916 15.1666 5 15C5 14.8333 5.02625 14.677 5.07875 14.5312C5.13125 14.3854 5.21958 14.25 5.34375 14.125L13.5937 5.87495C13.8229 5.64579 14.1096 5.5262 14.4537 5.5162C14.7979 5.5062 15.0946 5.62579 15.3437 5.87495C15.5937 6.10412 15.7242 6.39079 15.735 6.73495C15.7458 7.07912 15.6258 7.37579 15.375 7.62495L9.25 13.75H23.2187C23.5729 13.75 23.87 13.87 24.11 14.11C24.35 14.35 24.4696 14.6466 24.4687 15C24.4687 15.3541 24.3492 15.6512 24.11 15.8912C23.8708 16.1312 23.5737 16.2508 23.2187 16.25H9.25L15.375 22.375C15.6042 22.6041 15.7242 22.8958 15.735 23.25C15.7458 23.6041 15.6258 23.8958 15.375 24.125C15.1458 24.375 14.8542 24.5 14.5 24.5C14.1458 24.5 13.8437 24.375 13.5937 24.125Z" fill="#5EC3C5"/>
</svg>
