<svg width="338" height="16" viewBox="0 0 338 16" fill="none" xmlns="http://www.w3.org/2000/svg">
<path fill-rule="evenodd" clip-rule="evenodd" d="M229.621 0.0573382C227.189 0.0483497 225.232 0.0411173 224.049 0.0382726C223.622 0.0382726 223.211 0.0492206 222.827 0.0594292C222.348 0.0721716 221.913 0.0837621 221.545 0.0714731C210.99 -0.0130247 199.84 -0.00343927 188.669 0.00616354C182.283 0.0116537 175.89 0.0171496 169.597 0.0050722C166.278 -0.00297425 162.954 0.0357842 159.629 0.0745553C158.399 0.0888977 157.169 0.103241 155.938 0.115218C152.947 0.0401926 149.981 0.0993338 147.024 0.15827C145.663 0.185405 144.304 0.212497 142.946 0.226431C131.266 0.341203 119.56 0.33452 107.857 0.327839C103.762 0.325501 99.666 0.323163 95.572 0.326032C87.653 0.332843 79.7332 0.335463 71.8132 0.338083C53.9919 0.34398 36.1693 0.349876 18.3502 0.403511C17.0445 0.406267 15.7412 0.382944 14.4416 0.359688C10.5223 0.289553 6.63731 0.220031 2.82526 0.868317C2.79101 0.873851 2.73964 0.879384 2.68828 0.884917C2.63691 0.890451 2.58554 0.895984 2.5513 0.901518C1.42495 1.04298 1.32154 1.27961 1.21924 1.51369C1.16947 1.62756 1.11997 1.74083 0.953105 1.84224C-1.36804 3.28099 0.466055 3.73473 7.38382 3.52445C8.65243 3.48718 9.98576 3.52836 11.293 3.56872C11.5385 3.5763 11.783 3.58386 12.0261 3.59085C14.9769 3.68255 19.5995 3.70587 23.1454 3.72377C23.8793 3.72747 24.567 3.73094 25.1843 3.73473C27.3937 3.75162 29.7152 3.69984 31.9848 3.64921C34.1791 3.60027 36.325 3.55241 38.274 3.56873C44.9442 3.62131 51.6133 3.70684 58.282 3.79237C68.4588 3.92289 78.635 4.0534 88.814 4.06677C100.027 4.08584 111.239 4.00632 122.454 3.92679C130.762 3.86786 139.072 3.80893 147.383 3.79009C157.779 3.76796 168.174 3.77902 178.57 3.79009C188.966 3.80116 199.361 3.81223 209.757 3.79009C217.246 3.77577 224.735 3.78693 232.224 3.79809C247.885 3.82143 263.547 3.84477 279.224 3.63513C290.929 3.47978 302.722 3.61438 314.504 3.74885C318.67 3.79639 322.835 3.84392 326.993 3.87861C333.569 3.93395 337.861 3.18138 337.998 1.87544C338.119 0.709138 332.554 0.620886 328.741 0.560427C328.466 0.556058 328.199 0.551833 327.945 0.547357C303.813 0.126801 279.612 0.104684 255.419 0.115752C247.65 0.123974 236.651 0.0833196 229.621 0.0573382ZM160.576 11.4515C155.317 11.4687 150.048 11.486 148.098 11.4934L147.996 11.4972C147.426 11.518 146.903 11.5371 146.508 11.5266C141.303 11.5266 135.871 11.5239 130.383 11.5212C124.781 11.5184 119.121 11.5156 113.585 11.5156C111.746 11.5156 109.904 11.5469 108.06 11.5783C107.017 11.596 105.973 11.6138 104.93 11.6258C103.029 11.5506 101.146 11.6098 99.2716 11.6688C98.4099 11.6959 97.5498 11.723 96.6906 11.7369C90.5186 11.8326 84.335 11.8397 78.1488 11.8467C74.3196 11.8511 70.4894 11.8554 66.6604 11.8808C50.3439 11.9693 34.0198 12.1243 17.7033 12.5891C16.8791 12.6139 16.0553 12.6127 15.2336 12.6115C12.7471 12.6078 10.2789 12.6042 7.87082 13.3195C7.83277 13.3306 7.74903 13.3528 7.70337 13.3638C6.99204 13.5275 6.9311 13.7613 6.87031 13.9945C6.84069 14.1081 6.81112 14.2215 6.70642 14.3267C5.26046 15.7986 6.42485 16.2192 10.8084 15.8982C11.6705 15.8381 12.5825 15.8597 13.471 15.8807C13.5629 15.8829 13.6546 15.8851 13.7459 15.8872C15.2522 15.924 17.4413 15.8921 19.4076 15.8634C20.3918 15.8491 21.3202 15.8355 22.0792 15.8318C23.4628 15.8152 24.9155 15.7371 26.3371 15.6606C27.746 15.5849 29.1244 15.5108 30.3745 15.4998C35.7133 15.5275 41.0503 15.5524 46.3872 15.5773C51.7237 15.6022 57.0602 15.6271 62.3986 15.6548C68.5857 15.5939 74.771 15.5358 80.9563 15.4777C87.1415 15.4196 93.3268 15.3615 99.514 15.3006C106.105 15.3006 112.697 15.2978 119.287 15.2951C125.876 15.2923 132.464 15.2895 139.05 15.2895C142.222 15.2704 145.395 15.2595 148.568 15.2487C160.068 15.2093 171.571 15.1699 183.083 14.7362C189.168 14.5015 195.29 14.4415 201.416 14.3815C205.402 14.3424 209.39 14.3033 213.372 14.216C217.542 14.1275 220.251 13.2863 220.312 11.9804C220.369 10.8118 216.886 10.8396 214.473 10.8588C214.281 10.8603 214.096 10.8618 213.92 10.8626C199.286 11.0427 184.617 11.2228 169.947 11.4029L167.976 11.427C165.781 11.4344 163.18 11.4429 160.576 11.4515Z" fill="#B50700"/>
</svg>
