<svg width="120" height="120" viewBox="0 0 120 120" fill="none" xmlns="http://www.w3.org/2000/svg">
<g clip-path="url(#clip0_1_575)">
<path d="M120 0H0V120H120V0Z" fill="white"/>
<path d="M6.86868 3.44092H3.44086V6.86874H6.86868V3.44092Z" fill="black"/>
<path d="M10.2965 3.44092H6.86868V6.86874H10.2965V3.44092Z" fill="black"/>
<path d="M13.7243 3.44092H10.2965V6.86874H13.7243V3.44092Z" fill="black"/>
<path d="M17.1522 3.44092H13.7243V6.86874H17.1522V3.44092Z" fill="black"/>
<path d="M20.58 3.44092H17.1522V6.86874H20.58V3.44092Z" fill="black"/>
<path d="M24.0078 3.44092H20.58V6.86874H24.0078V3.44092Z" fill="black"/>
<path d="M27.4356 3.44092H24.0078V6.86874H27.4356V3.44092Z" fill="black"/>
<path d="M34.2913 3.44092H30.8635V6.86874H34.2913V3.44092Z" fill="black"/>
<path d="M44.5748 3.44092H41.147V6.86874H44.5748V3.44092Z" fill="black"/>
<path d="M48.0026 3.44092H44.5748V6.86874H48.0026V3.44092Z" fill="black"/>
<path d="M51.4304 3.44092H48.0026V6.86874H51.4304V3.44092Z" fill="black"/>
<path d="M58.2861 3.44092H54.8583V6.86874H58.2861V3.44092Z" fill="black"/>
<path d="M75.4252 3.44092H71.9974V6.86874H75.4252V3.44092Z" fill="black"/>
<path d="M78.853 3.44092H75.4252V6.86874H78.853V3.44092Z" fill="black"/>
<path d="M89.1365 3.44092H85.7087V6.86874H89.1365V3.44092Z" fill="black"/>
<path d="M95.9922 3.44092H92.5644V6.86874H95.9922V3.44092Z" fill="black"/>
<path d="M99.42 3.44092H95.9922V6.86874H99.42V3.44092Z" fill="black"/>
<path d="M102.848 3.44092H99.42V6.86874H102.848V3.44092Z" fill="black"/>
<path d="M106.276 3.44092H102.848V6.86874H106.276V3.44092Z" fill="black"/>
<path d="M109.703 3.44092H106.276V6.86874H109.703V3.44092Z" fill="black"/>
<path d="M113.131 3.44092H109.703V6.86874H113.131V3.44092Z" fill="black"/>
<path d="M116.559 3.44092H113.131V6.86874H116.559V3.44092Z" fill="black"/>
<path d="M6.86868 6.86874H3.44086V10.2966H6.86868V6.86874Z" fill="black"/>
<path d="M27.4356 6.86874H24.0078V10.2966H27.4356V6.86874Z" fill="black"/>
<path d="M37.7191 6.86874H34.2913V10.2966H37.7191V6.86874Z" fill="black"/>
<path d="M41.147 6.86874H37.7191V10.2966H41.147V6.86874Z" fill="black"/>
<path d="M44.5748 6.86874H41.147V10.2966H44.5748V6.86874Z" fill="black"/>
<path d="M51.4304 6.86874H48.0026V10.2966H51.4304V6.86874Z" fill="black"/>
<path d="M61.7139 6.86874H58.2861V10.2966H61.7139V6.86874Z" fill="black"/>
<path d="M65.1417 6.86874H61.7139V10.2966H65.1417V6.86874Z" fill="black"/>
<path d="M68.5696 6.86874H65.1417V10.2966H68.5696V6.86874Z" fill="black"/>
<path d="M78.853 6.86874H75.4252V10.2966H78.853V6.86874Z" fill="black"/>
<path d="M85.7087 6.86874H82.2809V10.2966H85.7087V6.86874Z" fill="black"/>
<path d="M95.9922 6.86874H92.5644V10.2966H95.9922V6.86874Z" fill="black"/>
<path d="M116.559 6.86874H113.131V10.2966H116.559V6.86874Z" fill="black"/>
<path d="M6.86868 10.2966H3.44086V13.7244H6.86868V10.2966Z" fill="black"/>
<path d="M13.7243 10.2966H10.2965V13.7244H13.7243V10.2966Z" fill="black"/>
<path d="M17.1522 10.2966H13.7243V13.7244H17.1522V10.2966Z" fill="black"/>
<path d="M20.58 10.2966H17.1522V13.7244H20.58V10.2966Z" fill="black"/>
<path d="M27.4356 10.2966H24.0078V13.7244H27.4356V10.2966Z" fill="black"/>
<path d="M34.2913 10.2966H30.8635V13.7244H34.2913V10.2966Z" fill="black"/>
<path d="M37.7191 10.2966H34.2913V13.7244H37.7191V10.2966Z" fill="black"/>
<path d="M44.5748 10.2966H41.147V13.7244H44.5748V10.2966Z" fill="black"/>
<path d="M48.0026 10.2966H44.5748V13.7244H48.0026V10.2966Z" fill="black"/>
<path d="M51.4304 10.2966H48.0026V13.7244H51.4304V10.2966Z" fill="black"/>
<path d="M54.8583 10.2966H51.4304V13.7244H54.8583V10.2966Z" fill="black"/>
<path d="M61.7139 10.2966H58.2861V13.7244H61.7139V10.2966Z" fill="black"/>
<path d="M65.1417 10.2966H61.7139V13.7244H65.1417V10.2966Z" fill="black"/>
<path d="M68.5696 10.2966H65.1417V13.7244H68.5696V10.2966Z" fill="black"/>
<path d="M71.9974 10.2966H68.5696V13.7244H71.9974V10.2966Z" fill="black"/>
<path d="M75.4252 10.2966H71.9974V13.7244H75.4252V10.2966Z" fill="black"/>
<path d="M82.2809 10.2966H78.853V13.7244H82.2809V10.2966Z" fill="black"/>
<path d="M89.1365 10.2966H85.7087V13.7244H89.1365V10.2966Z" fill="black"/>
<path d="M95.9922 10.2966H92.5644V13.7244H95.9922V10.2966Z" fill="black"/>
<path d="M102.848 10.2966H99.42V13.7244H102.848V10.2966Z" fill="black"/>
<path d="M106.276 10.2966H102.848V13.7244H106.276V10.2966Z" fill="black"/>
<path d="M109.703 10.2966H106.276V13.7244H109.703V10.2966Z" fill="black"/>
<path d="M116.559 10.2966H113.131V13.7244H116.559V10.2966Z" fill="black"/>
<path d="M6.86868 13.7244H3.44086V17.1522H6.86868V13.7244Z" fill="black"/>
<path d="M13.7243 13.7244H10.2965V17.1522H13.7243V13.7244Z" fill="black"/>
<path d="M17.1522 13.7244H13.7243V17.1522H17.1522V13.7244Z" fill="black"/>
<path d="M20.58 13.7244H17.1522V17.1522H20.58V13.7244Z" fill="black"/>
<path d="M27.4356 13.7244H24.0078V17.1522H27.4356V13.7244Z" fill="black"/>
<path d="M34.2913 13.7244H30.8635V17.1522H34.2913V13.7244Z" fill="black"/>
<path d="M37.7191 13.7244H34.2913V17.1522H37.7191V13.7244Z" fill="black"/>
<path d="M65.1417 13.7244H61.7139V17.1522H65.1417V13.7244Z" fill="black"/>
<path d="M68.5696 13.7244H65.1417V17.1522H68.5696V13.7244Z" fill="black"/>
<path d="M71.9974 13.7244H68.5696V17.1522H71.9974V13.7244Z" fill="black"/>
<path d="M78.853 13.7244H75.4252V17.1522H78.853V13.7244Z" fill="black"/>
<path d="M82.2809 13.7244H78.853V17.1522H82.2809V13.7244Z" fill="black"/>
<path d="M85.7087 13.7244H82.2809V17.1522H85.7087V13.7244Z" fill="black"/>
<path d="M89.1365 13.7244H85.7087V17.1522H89.1365V13.7244Z" fill="black"/>
<path d="M95.9922 13.7244H92.5644V17.1522H95.9922V13.7244Z" fill="black"/>
<path d="M102.848 13.7244H99.42V17.1522H102.848V13.7244Z" fill="black"/>
<path d="M106.276 13.7244H102.848V17.1522H106.276V13.7244Z" fill="black"/>
<path d="M109.703 13.7244H106.276V17.1522H109.703V13.7244Z" fill="black"/>
<path d="M116.559 13.7244H113.131V17.1522H116.559V13.7244Z" fill="black"/>
<path d="M6.86868 17.1522H3.44086V20.5801H6.86868V17.1522Z" fill="black"/>
<path d="M13.7243 17.1522H10.2965V20.5801H13.7243V17.1522Z" fill="black"/>
<path d="M17.1522 17.1522H13.7243V20.5801H17.1522V17.1522Z" fill="black"/>
<path d="M20.58 17.1522H17.1522V20.5801H20.58V17.1522Z" fill="black"/>
<path d="M27.4356 17.1522H24.0078V20.5801H27.4356V17.1522Z" fill="black"/>
<path d="M37.7191 17.1522H34.2913V20.5801H37.7191V17.1522Z" fill="black"/>
<path d="M41.147 17.1522H37.7191V20.5801H41.147V17.1522Z" fill="black"/>
<path d="M48.0026 17.1522H44.5748V20.5801H48.0026V17.1522Z" fill="black"/>
<path d="M54.8583 17.1522H51.4304V20.5801H54.8583V17.1522Z" fill="black"/>
<path d="M65.1417 17.1522H61.7139V20.5801H65.1417V17.1522Z" fill="black"/>
<path d="M68.5696 17.1522H65.1417V20.5801H68.5696V17.1522Z" fill="black"/>
<path d="M71.9974 17.1522H68.5696V20.5801H71.9974V17.1522Z" fill="black"/>
<path d="M82.2809 17.1522H78.853V20.5801H82.2809V17.1522Z" fill="black"/>
<path d="M95.9922 17.1522H92.5644V20.5801H95.9922V17.1522Z" fill="black"/>
<path d="M102.848 17.1522H99.42V20.5801H102.848V17.1522Z" fill="black"/>
<path d="M106.276 17.1522H102.848V20.5801H106.276V17.1522Z" fill="black"/>
<path d="M109.703 17.1522H106.276V20.5801H109.703V17.1522Z" fill="black"/>
<path d="M116.559 17.1522H113.131V20.5801H116.559V17.1522Z" fill="black"/>
<path d="M6.86868 20.5801H3.44086V24.0079H6.86868V20.5801Z" fill="black"/>
<path d="M27.4356 20.5801H24.0078V24.0079H27.4356V20.5801Z" fill="black"/>
<path d="M34.2913 20.5801H30.8635V24.0079H34.2913V20.5801Z" fill="black"/>
<path d="M37.7191 20.5801H34.2913V24.0079H37.7191V20.5801Z" fill="black"/>
<path d="M41.147 20.5801H37.7191V24.0079H41.147V20.5801Z" fill="black"/>
<path d="M48.0026 20.5801H44.5748V24.0079H48.0026V20.5801Z" fill="black"/>
<path d="M68.5696 20.5801H65.1417V24.0079H68.5696V20.5801Z" fill="black"/>
<path d="M75.4252 20.5801H71.9974V24.0079H75.4252V20.5801Z" fill="black"/>
<path d="M78.853 20.5801H75.4252V24.0079H78.853V20.5801Z" fill="black"/>
<path d="M89.1365 20.5801H85.7087V24.0079H89.1365V20.5801Z" fill="black"/>
<path d="M95.9922 20.5801H92.5644V24.0079H95.9922V20.5801Z" fill="black"/>
<path d="M116.559 20.5801H113.131V24.0079H116.559V20.5801Z" fill="black"/>
<path d="M6.86868 24.0079H3.44086V27.4357H6.86868V24.0079Z" fill="black"/>
<path d="M10.2965 24.0079H6.86868V27.4357H10.2965V24.0079Z" fill="black"/>
<path d="M13.7243 24.0079H10.2965V27.4357H13.7243V24.0079Z" fill="black"/>
<path d="M17.1522 24.0079H13.7243V27.4357H17.1522V24.0079Z" fill="black"/>
<path d="M20.58 24.0079H17.1522V27.4357H20.58V24.0079Z" fill="black"/>
<path d="M24.0078 24.0079H20.58V27.4357H24.0078V24.0079Z" fill="black"/>
<path d="M27.4356 24.0079H24.0078V27.4357H27.4356V24.0079Z" fill="black"/>
<path d="M34.2913 24.0079H30.8635V27.4357H34.2913V24.0079Z" fill="black"/>
<path d="M41.147 24.0079H37.7191V27.4357H41.147V24.0079Z" fill="black"/>
<path d="M48.0026 24.0079H44.5748V27.4357H48.0026V24.0079Z" fill="black"/>
<path d="M54.8583 24.0079H51.4304V27.4357H54.8583V24.0079Z" fill="black"/>
<path d="M61.7139 24.0079H58.2861V27.4357H61.7139V24.0079Z" fill="black"/>
<path d="M68.5696 24.0079H65.1417V27.4357H68.5696V24.0079Z" fill="black"/>
<path d="M75.4252 24.0079H71.9974V27.4357H75.4252V24.0079Z" fill="black"/>
<path d="M82.2809 24.0079H78.853V27.4357H82.2809V24.0079Z" fill="black"/>
<path d="M89.1365 24.0079H85.7087V27.4357H89.1365V24.0079Z" fill="black"/>
<path d="M95.9922 24.0079H92.5644V27.4357H95.9922V24.0079Z" fill="black"/>
<path d="M99.42 24.0079H95.9922V27.4357H99.42V24.0079Z" fill="black"/>
<path d="M102.848 24.0079H99.42V27.4357H102.848V24.0079Z" fill="black"/>
<path d="M106.276 24.0079H102.848V27.4357H106.276V24.0079Z" fill="black"/>
<path d="M109.703 24.0079H106.276V27.4357H109.703V24.0079Z" fill="black"/>
<path d="M113.131 24.0079H109.703V27.4357H113.131V24.0079Z" fill="black"/>
<path d="M116.559 24.0079H113.131V27.4357H116.559V24.0079Z" fill="black"/>
<path d="M34.2913 27.4357H30.8635V30.8635H34.2913V27.4357Z" fill="black"/>
<path d="M44.5748 27.4357H41.147V30.8635H44.5748V27.4357Z" fill="black"/>
<path d="M54.8583 27.4357H51.4304V30.8635H54.8583V27.4357Z" fill="black"/>
<path d="M61.7139 27.4357H58.2861V30.8635H61.7139V27.4357Z" fill="black"/>
<path d="M65.1417 27.4357H61.7139V30.8635H65.1417V27.4357Z" fill="black"/>
<path d="M78.853 27.4357H75.4252V30.8635H78.853V27.4357Z" fill="black"/>
<path d="M85.7087 27.4357H82.2809V30.8635H85.7087V27.4357Z" fill="black"/>
<path d="M6.86868 30.8635H3.44086V34.2914H6.86868V30.8635Z" fill="black"/>
<path d="M10.2965 30.8635H6.86868V34.2914H10.2965V30.8635Z" fill="black"/>
<path d="M17.1522 30.8635H13.7243V34.2914H17.1522V30.8635Z" fill="black"/>
<path d="M27.4356 30.8635H24.0078V34.2914H27.4356V30.8635Z" fill="black"/>
<path d="M30.8635 30.8635H27.4356V34.2914H30.8635V30.8635Z" fill="black"/>
<path d="M44.5748 30.8635H41.147V34.2914H44.5748V30.8635Z" fill="black"/>
<path d="M54.8583 30.8635H51.4304V34.2914H54.8583V30.8635Z" fill="black"/>
<path d="M58.2861 30.8635H54.8583V34.2914H58.2861V30.8635Z" fill="black"/>
<path d="M65.1417 30.8635H61.7139V34.2914H65.1417V30.8635Z" fill="black"/>
<path d="M68.5696 30.8635H65.1417V34.2914H68.5696V30.8635Z" fill="black"/>
<path d="M75.4252 30.8635H71.9974V34.2914H75.4252V30.8635Z" fill="black"/>
<path d="M85.7087 30.8635H82.2809V34.2914H85.7087V30.8635Z" fill="black"/>
<path d="M92.5644 30.8635H89.1365V34.2914H92.5644V30.8635Z" fill="black"/>
<path d="M95.9922 30.8635H92.5644V34.2914H95.9922V30.8635Z" fill="black"/>
<path d="M99.42 30.8635H95.9922V34.2914H99.42V30.8635Z" fill="black"/>
<path d="M106.276 30.8635H102.848V34.2914H106.276V30.8635Z" fill="black"/>
<path d="M109.703 30.8635H106.276V34.2914H109.703V30.8635Z" fill="black"/>
<path d="M116.559 30.8635H113.131V34.2914H116.559V30.8635Z" fill="black"/>
<path d="M10.2965 34.2914H6.86868V37.7192H10.2965V34.2914Z" fill="black"/>
<path d="M20.58 34.2914H17.1522V37.7192H20.58V34.2914Z" fill="black"/>
<path d="M24.0078 34.2914H20.58V37.7192H24.0078V34.2914Z" fill="black"/>
<path d="M30.8635 34.2914H27.4356V37.7192H30.8635V34.2914Z" fill="black"/>
<path d="M41.147 34.2914H37.7191V37.7192H41.147V34.2914Z" fill="black"/>
<path d="M48.0026 34.2914H44.5748V37.7192H48.0026V34.2914Z" fill="black"/>
<path d="M51.4304 34.2914H48.0026V37.7192H51.4304V34.2914Z" fill="black"/>
<path d="M54.8583 34.2914H51.4304V37.7192H54.8583V34.2914Z" fill="black"/>
<path d="M58.2861 34.2914H54.8583V37.7192H58.2861V34.2914Z" fill="black"/>
<path d="M65.1417 34.2914H61.7139V37.7192H65.1417V34.2914Z" fill="black"/>
<path d="M68.5696 34.2914H65.1417V37.7192H68.5696V34.2914Z" fill="black"/>
<path d="M75.4252 34.2914H71.9974V37.7192H75.4252V34.2914Z" fill="black"/>
<path d="M78.853 34.2914H75.4252V37.7192H78.853V34.2914Z" fill="black"/>
<path d="M92.5644 34.2914H89.1365V37.7192H92.5644V34.2914Z" fill="black"/>
<path d="M95.9922 34.2914H92.5644V37.7192H95.9922V34.2914Z" fill="black"/>
<path d="M99.42 34.2914H95.9922V37.7192H99.42V34.2914Z" fill="black"/>
<path d="M102.848 34.2914H99.42V37.7192H102.848V34.2914Z" fill="black"/>
<path d="M113.131 34.2914H109.703V37.7192H113.131V34.2914Z" fill="black"/>
<path d="M10.2965 37.7192H6.86868V41.147H10.2965V37.7192Z" fill="black"/>
<path d="M24.0078 37.7192H20.58V41.147H24.0078V37.7192Z" fill="black"/>
<path d="M27.4356 37.7192H24.0078V41.147H27.4356V37.7192Z" fill="black"/>
<path d="M48.0026 37.7192H44.5748V41.147H48.0026V37.7192Z" fill="black"/>
<path d="M51.4304 37.7192H48.0026V41.147H51.4304V37.7192Z" fill="black"/>
<path d="M61.7139 37.7192H58.2861V41.147H61.7139V37.7192Z" fill="black"/>
<path d="M68.5696 37.7192H65.1417V41.147H68.5696V37.7192Z" fill="black"/>
<path d="M71.9974 37.7192H68.5696V41.147H71.9974V37.7192Z" fill="black"/>
<path d="M75.4252 37.7192H71.9974V41.147H75.4252V37.7192Z" fill="black"/>
<path d="M78.853 37.7192H75.4252V41.147H78.853V37.7192Z" fill="black"/>
<path d="M92.5644 37.7192H89.1365V41.147H92.5644V37.7192Z" fill="black"/>
<path d="M95.9922 37.7192H92.5644V41.147H95.9922V37.7192Z" fill="black"/>
<path d="M106.276 37.7192H102.848V41.147H106.276V37.7192Z" fill="black"/>
<path d="M113.131 37.7192H109.703V41.147H113.131V37.7192Z" fill="black"/>
<path d="M6.86868 41.147H3.44086V44.5748H6.86868V41.147Z" fill="black"/>
<path d="M10.2965 41.147H6.86868V44.5748H10.2965V41.147Z" fill="black"/>
<path d="M17.1522 41.147H13.7243V44.5748H17.1522V41.147Z" fill="black"/>
<path d="M30.8635 41.147H27.4356V44.5748H30.8635V41.147Z" fill="black"/>
<path d="M34.2913 41.147H30.8635V44.5748H34.2913V41.147Z" fill="black"/>
<path d="M41.147 41.147H37.7191V44.5748H41.147V41.147Z" fill="black"/>
<path d="M44.5748 41.147H41.147V44.5748H44.5748V41.147Z" fill="black"/>
<path d="M51.4304 41.147H48.0026V44.5748H51.4304V41.147Z" fill="black"/>
<path d="M54.8583 41.147H51.4304V44.5748H54.8583V41.147Z" fill="black"/>
<path d="M58.2861 41.147H54.8583V44.5748H58.2861V41.147Z" fill="black"/>
<path d="M61.7139 41.147H58.2861V44.5748H61.7139V41.147Z" fill="black"/>
<path d="M65.1417 41.147H61.7139V44.5748H65.1417V41.147Z" fill="black"/>
<path d="M68.5696 41.147H65.1417V44.5748H68.5696V41.147Z" fill="black"/>
<path d="M71.9974 41.147H68.5696V44.5748H71.9974V41.147Z" fill="black"/>
<path d="M75.4252 41.147H71.9974V44.5748H75.4252V41.147Z" fill="black"/>
<path d="M82.2809 41.147H78.853V44.5748H82.2809V41.147Z" fill="black"/>
<path d="M85.7087 41.147H82.2809V44.5748H85.7087V41.147Z" fill="black"/>
<path d="M95.9922 41.147H92.5644V44.5748H95.9922V41.147Z" fill="black"/>
<path d="M99.42 41.147H95.9922V44.5748H99.42V41.147Z" fill="black"/>
<path d="M109.703 41.147H106.276V44.5748H109.703V41.147Z" fill="black"/>
<path d="M116.559 41.147H113.131V44.5748H116.559V41.147Z" fill="black"/>
<path d="M6.86868 44.5748H3.44086V48.0027H6.86868V44.5748Z" fill="black"/>
<path d="M10.2965 44.5748H6.86868V48.0027H10.2965V44.5748Z" fill="black"/>
<path d="M13.7243 44.5748H10.2965V48.0027H13.7243V44.5748Z" fill="black"/>
<path d="M24.0078 44.5748H20.58V48.0027H24.0078V44.5748Z" fill="black"/>
<path d="M27.4356 44.5748H24.0078V48.0027H27.4356V44.5748Z" fill="black"/>
<path d="M34.2913 44.5748H30.8635V48.0027H34.2913V44.5748Z" fill="black"/>
<path d="M54.8583 44.5748H51.4304V48.0027H54.8583V44.5748Z" fill="black"/>
<path d="M58.2861 44.5748H54.8583V48.0027H58.2861V44.5748Z" fill="black"/>
<path d="M68.5696 44.5748H65.1417V48.0027H68.5696V44.5748Z" fill="black"/>
<path d="M71.9974 44.5748H68.5696V48.0027H71.9974V44.5748Z" fill="black"/>
<path d="M75.4252 44.5748H71.9974V48.0027H75.4252V44.5748Z" fill="black"/>
<path d="M78.853 44.5748H75.4252V48.0027H78.853V44.5748Z" fill="black"/>
<path d="M82.2809 44.5748H78.853V48.0027H82.2809V44.5748Z" fill="black"/>
<path d="M89.1365 44.5748H85.7087V48.0027H89.1365V44.5748Z" fill="black"/>
<path d="M102.848 44.5748H99.42V48.0027H102.848V44.5748Z" fill="black"/>
<path d="M106.276 44.5748H102.848V48.0027H106.276V44.5748Z" fill="black"/>
<path d="M113.131 44.5748H109.703V48.0027H113.131V44.5748Z" fill="black"/>
<path d="M13.7243 48.0027H10.2965V51.4305H13.7243V48.0027Z" fill="black"/>
<path d="M20.58 48.0027H17.1522V51.4305H20.58V48.0027Z" fill="black"/>
<path d="M37.7191 48.0027H34.2913V51.4305H37.7191V48.0027Z" fill="black"/>
<path d="M41.147 48.0027H37.7191V51.4305H41.147V48.0027Z" fill="black"/>
<path d="M54.8583 48.0027H51.4304V51.4305H54.8583V48.0027Z" fill="black"/>
<path d="M61.7139 48.0027H58.2861V51.4305H61.7139V48.0027Z" fill="black"/>
<path d="M65.1417 48.0027H61.7139V51.4305H65.1417V48.0027Z" fill="black"/>
<path d="M82.2809 48.0027H78.853V51.4305H82.2809V48.0027Z" fill="black"/>
<path d="M85.7087 48.0027H82.2809V51.4305H85.7087V48.0027Z" fill="black"/>
<path d="M99.42 48.0027H95.9922V51.4305H99.42V48.0027Z" fill="black"/>
<path d="M102.848 48.0027H99.42V51.4305H102.848V48.0027Z" fill="black"/>
<path d="M109.703 48.0027H106.276V51.4305H109.703V48.0027Z" fill="black"/>
<path d="M113.131 48.0027H109.703V51.4305H113.131V48.0027Z" fill="black"/>
<path d="M10.2965 51.4305H6.86868V54.8583H10.2965V51.4305Z" fill="black"/>
<path d="M13.7243 51.4305H10.2965V54.8583H13.7243V51.4305Z" fill="black"/>
<path d="M24.0078 51.4305H20.58V54.8583H24.0078V51.4305Z" fill="black"/>
<path d="M27.4356 51.4305H24.0078V54.8583H27.4356V51.4305Z" fill="black"/>
<path d="M34.2913 51.4305H30.8635V54.8583H34.2913V51.4305Z" fill="black"/>
<path d="M48.0026 51.4305H44.5748V54.8583H48.0026V51.4305Z" fill="black"/>
<path d="M51.4304 51.4305H48.0026V54.8583H51.4304V51.4305Z" fill="black"/>
<path d="M58.2861 51.4305H54.8583V54.8583H58.2861V51.4305Z" fill="black"/>
<path d="M61.7139 51.4305H58.2861V54.8583H61.7139V51.4305Z" fill="black"/>
<path d="M65.1417 51.4305H61.7139V54.8583H65.1417V51.4305Z" fill="black"/>
<path d="M68.5696 51.4305H65.1417V54.8583H68.5696V51.4305Z" fill="black"/>
<path d="M71.9974 51.4305H68.5696V54.8583H71.9974V51.4305Z" fill="black"/>
<path d="M75.4252 51.4305H71.9974V54.8583H75.4252V51.4305Z" fill="black"/>
<path d="M78.853 51.4305H75.4252V54.8583H78.853V51.4305Z" fill="black"/>
<path d="M85.7087 51.4305H82.2809V54.8583H85.7087V51.4305Z" fill="black"/>
<path d="M92.5644 51.4305H89.1365V54.8583H92.5644V51.4305Z" fill="black"/>
<path d="M99.42 51.4305H95.9922V54.8583H99.42V51.4305Z" fill="black"/>
<path d="M109.703 51.4305H106.276V54.8583H109.703V51.4305Z" fill="black"/>
<path d="M113.131 51.4305H109.703V54.8583H113.131V51.4305Z" fill="black"/>
<path d="M17.1522 54.8583H13.7243V58.2862H17.1522V54.8583Z" fill="black"/>
<path d="M24.0078 54.8583H20.58V58.2862H24.0078V54.8583Z" fill="black"/>
<path d="M30.8635 54.8583H27.4356V58.2862H30.8635V54.8583Z" fill="black"/>
<path d="M34.2913 54.8583H30.8635V58.2862H34.2913V54.8583Z" fill="black"/>
<path d="M48.0026 54.8583H44.5748V58.2862H48.0026V54.8583Z" fill="black"/>
<path d="M58.2861 54.8583H54.8583V58.2862H58.2861V54.8583Z" fill="black"/>
<path d="M65.1417 54.8583H61.7139V58.2862H65.1417V54.8583Z" fill="black"/>
<path d="M68.5696 54.8583H65.1417V58.2862H68.5696V54.8583Z" fill="black"/>
<path d="M78.853 54.8583H75.4252V58.2862H78.853V54.8583Z" fill="black"/>
<path d="M82.2809 54.8583H78.853V58.2862H82.2809V54.8583Z" fill="black"/>
<path d="M85.7087 54.8583H82.2809V58.2862H85.7087V54.8583Z" fill="black"/>
<path d="M92.5644 54.8583H89.1365V58.2862H92.5644V54.8583Z" fill="black"/>
<path d="M102.848 54.8583H99.42V58.2862H102.848V54.8583Z" fill="black"/>
<path d="M109.703 54.8583H106.276V58.2862H109.703V54.8583Z" fill="black"/>
<path d="M13.7243 58.2862H10.2965V61.714H13.7243V58.2862Z" fill="black"/>
<path d="M20.58 58.2862H17.1522V61.714H20.58V58.2862Z" fill="black"/>
<path d="M24.0078 58.2862H20.58V61.714H24.0078V58.2862Z" fill="black"/>
<path d="M27.4356 58.2862H24.0078V61.714H27.4356V58.2862Z" fill="black"/>
<path d="M30.8635 58.2862H27.4356V61.714H30.8635V58.2862Z" fill="black"/>
<path d="M37.7191 58.2862H34.2913V61.714H37.7191V58.2862Z" fill="black"/>
<path d="M44.5748 58.2862H41.147V61.714H44.5748V58.2862Z" fill="black"/>
<path d="M48.0026 58.2862H44.5748V61.714H48.0026V58.2862Z" fill="black"/>
<path d="M61.7139 58.2862H58.2861V61.714H61.7139V58.2862Z" fill="black"/>
<path d="M68.5696 58.2862H65.1417V61.714H68.5696V58.2862Z" fill="black"/>
<path d="M75.4252 58.2862H71.9974V61.714H75.4252V58.2862Z" fill="black"/>
<path d="M78.853 58.2862H75.4252V61.714H78.853V58.2862Z" fill="black"/>
<path d="M92.5644 58.2862H89.1365V61.714H92.5644V58.2862Z" fill="black"/>
<path d="M99.42 58.2862H95.9922V61.714H99.42V58.2862Z" fill="black"/>
<path d="M102.848 58.2862H99.42V61.714H102.848V58.2862Z" fill="black"/>
<path d="M106.276 58.2862H102.848V61.714H106.276V58.2862Z" fill="black"/>
<path d="M109.703 58.2862H106.276V61.714H109.703V58.2862Z" fill="black"/>
<path d="M116.559 58.2862H113.131V61.714H116.559V58.2862Z" fill="black"/>
<path d="M10.2965 61.714H6.86868V65.1418H10.2965V61.714Z" fill="black"/>
<path d="M30.8635 61.714H27.4356V65.1418H30.8635V61.714Z" fill="black"/>
<path d="M34.2913 61.714H30.8635V65.1418H34.2913V61.714Z" fill="black"/>
<path d="M37.7191 61.714H34.2913V65.1418H37.7191V61.714Z" fill="black"/>
<path d="M44.5748 61.714H41.147V65.1418H44.5748V61.714Z" fill="black"/>
<path d="M54.8583 61.714H51.4304V65.1418H54.8583V61.714Z" fill="black"/>
<path d="M71.9974 61.714H68.5696L68.5696 65.1418H71.9974V61.714Z" fill="black"/>
<path d="M82.2809 61.714H78.853V65.1418H82.2809V61.714Z" fill="black"/>
<path d="M89.1365 61.714H85.7087V65.1418H89.1365V61.714Z" fill="black"/>
<path d="M95.9922 61.714H92.5644V65.1418H95.9922V61.714Z" fill="black"/>
<path d="M99.42 61.714H95.9922V65.1418H99.42V61.714Z" fill="black"/>
<path d="M102.848 61.714H99.42V65.1418H102.848V61.714Z" fill="black"/>
<path d="M109.703 61.714H106.276V65.1418H109.703V61.714Z" fill="black"/>
<path d="M113.131 61.714H109.703V65.1418H113.131V61.714Z" fill="black"/>
<path d="M116.559 61.714H113.131V65.1418H116.559V61.714Z" fill="black"/>
<path d="M6.86868 65.1418H3.44086V68.5696H6.86868V65.1418Z" fill="black"/>
<path d="M13.7243 65.1418H10.2965V68.5696H13.7243V65.1418Z" fill="black"/>
<path d="M17.1522 65.1418H13.7243V68.5696H17.1522V65.1418Z" fill="black"/>
<path d="M20.58 65.1418H17.1522V68.5696H20.58V65.1418Z" fill="black"/>
<path d="M24.0078 65.1418H20.58V68.5696H24.0078V65.1418Z" fill="black"/>
<path d="M27.4356 65.1418H24.0078V68.5696H27.4356V65.1418Z" fill="black"/>
<path d="M30.8635 65.1418H27.4356V68.5696H30.8635V65.1418Z" fill="black"/>
<path d="M37.7191 65.1418H34.2913V68.5696H37.7191V65.1418Z" fill="black"/>
<path d="M41.147 65.1418H37.7191V68.5696H41.147V65.1418Z" fill="black"/>
<path d="M54.8583 65.1418H51.4304V68.5696H54.8583V65.1418Z" fill="black"/>
<path d="M61.7139 65.1418H58.2861V68.5696H61.7139V65.1418Z" fill="black"/>
<path d="M65.1417 65.1418H61.7139V68.5696H65.1417V65.1418Z" fill="black"/>
<path d="M68.5696 65.1418H65.1417V68.5696H68.5696L68.5696 65.1418Z" fill="black"/>
<path d="M71.9974 65.1418H68.5696L68.5696 68.5696H71.9974V65.1418Z" fill="black"/>
<path d="M82.2809 65.1418H78.853V68.5696H82.2809V65.1418Z" fill="black"/>
<path d="M85.7087 65.1418H82.2809V68.5696H85.7087V65.1418Z" fill="black"/>
<path d="M92.5644 65.1418H89.1365V68.5696H92.5644V65.1418Z" fill="black"/>
<path d="M95.9922 65.1418H92.5644V68.5696H95.9922V65.1418Z" fill="black"/>
<path d="M99.42 65.1418H95.9922V68.5696H99.42V65.1418Z" fill="black"/>
<path d="M102.848 65.1418H99.42V68.5696H102.848V65.1418Z" fill="black"/>
<path d="M109.703 65.1418H106.276V68.5696H109.703V65.1418Z" fill="black"/>
<path d="M113.131 65.1418H109.703V68.5696H113.131V65.1418Z" fill="black"/>
<path d="M6.86868 68.5696H3.44086V71.9975H6.86868V68.5696Z" fill="black"/>
<path d="M17.1522 68.5696H13.7243V71.9975H17.1522V68.5696Z" fill="black"/>
<path d="M30.8635 68.5696H27.4356V71.9975H30.8635V68.5696Z" fill="black"/>
<path d="M37.7191 68.5696H34.2913V71.9975H37.7191V68.5696Z" fill="black"/>
<path d="M54.8583 68.5696H51.4304V71.9975H54.8583V68.5696Z" fill="black"/>
<path d="M71.9974 68.5696H68.5696L68.5696 71.9975H71.9974V68.5696Z" fill="black"/>
<path d="M82.2809 68.5696H78.853V71.9975H82.2809V68.5696Z" fill="black"/>
<path d="M89.1365 68.5696H85.7087V71.9975H89.1365V68.5696Z" fill="black"/>
<path d="M92.5644 68.5696H89.1365V71.9975H92.5644V68.5696Z" fill="black"/>
<path d="M95.9922 68.5696H92.5644V71.9975H95.9922V68.5696Z" fill="black"/>
<path d="M106.276 68.5696H102.848V71.9975H106.276V68.5696Z" fill="black"/>
<path d="M113.131 68.5696H109.703V71.9975H113.131V68.5696Z" fill="black"/>
<path d="M116.559 68.5696L113.131 68.5696V71.9975H116.559V68.5696Z" fill="black"/>
<path d="M6.86868 71.9975H3.44086V75.4253H6.86868V71.9975Z" fill="black"/>
<path d="M13.7243 71.9975H10.2965V75.4253H13.7243V71.9975Z" fill="black"/>
<path d="M27.4356 71.9975H24.0078V75.4253H27.4356V71.9975Z" fill="black"/>
<path d="M37.7191 71.9975H34.2913V75.4253H37.7191V71.9975Z" fill="black"/>
<path d="M48.0026 71.9975H44.5748V75.4253H48.0026V71.9975Z" fill="black"/>
<path d="M51.4304 71.9975H48.0026V75.4253H51.4304V71.9975Z" fill="black"/>
<path d="M54.8583 71.9975H51.4304V75.4253H54.8583V71.9975Z" fill="black"/>
<path d="M61.7139 71.9975H58.2861V75.4253H61.7139V71.9975Z" fill="black"/>
<path d="M65.1417 71.9975H61.7139V75.4253H65.1417V71.9975Z" fill="black"/>
<path d="M78.853 71.9975H75.4252V75.4253H78.853V71.9975Z" fill="black"/>
<path d="M82.2809 71.9975H78.853V75.4253H82.2809V71.9975Z" fill="black"/>
<path d="M85.7087 71.9975H82.2809V75.4253H85.7087V71.9975Z" fill="black"/>
<path d="M92.5644 71.9975H89.1365V75.4253H92.5644V71.9975Z" fill="black"/>
<path d="M95.9922 71.9975H92.5644V75.4253H95.9922V71.9975Z" fill="black"/>
<path d="M99.42 71.9975H95.9922V75.4253H99.42V71.9975Z" fill="black"/>
<path d="M102.848 71.9975H99.42V75.4253H102.848V71.9975Z" fill="black"/>
<path d="M113.131 71.9975H109.703V75.4253H113.131V71.9975Z" fill="black"/>
<path d="M6.86868 75.4253H3.44086V78.8531H6.86868V75.4253Z" fill="black"/>
<path d="M10.2965 75.4253H6.86868V78.8531H10.2965V75.4253Z" fill="black"/>
<path d="M34.2913 75.4253H30.8635V78.8531H34.2913V75.4253Z" fill="black"/>
<path d="M58.2861 75.4253H54.8583V78.8531H58.2861V75.4253Z" fill="black"/>
<path d="M61.7139 75.4253H58.2861V78.8531H61.7139V75.4253Z" fill="black"/>
<path d="M75.4252 75.4253H71.9974V78.8531H75.4252V75.4253Z" fill="black"/>
<path d="M78.853 75.4253H75.4252V78.8531H78.853V75.4253Z" fill="black"/>
<path d="M99.42 75.4253H95.9922V78.8531H99.42V75.4253Z" fill="black"/>
<path d="M102.848 75.4253H99.42V78.8531H102.848V75.4253Z" fill="black"/>
<path d="M106.276 75.4253H102.848V78.8531H106.276V75.4253Z" fill="black"/>
<path d="M109.703 75.4253H106.276V78.8531H109.703V75.4253Z" fill="black"/>
<path d="M116.559 75.4253H113.131V78.8531H116.559V75.4253Z" fill="black"/>
<path d="M13.7243 78.8531H10.2965V82.2809H13.7243V78.8531Z" fill="black"/>
<path d="M20.58 78.8531H17.1522V82.2809H20.58V78.8531Z" fill="black"/>
<path d="M24.0078 78.8531H20.58V82.2809H24.0078V78.8531Z" fill="black"/>
<path d="M27.4356 78.8531H24.0078V82.2809H27.4356V78.8531Z" fill="black"/>
<path d="M30.8635 78.8531H27.4356V82.2809H30.8635V78.8531Z" fill="black"/>
<path d="M37.7191 78.8531H34.2913V82.2809H37.7191V78.8531Z" fill="black"/>
<path d="M44.5748 78.8531H41.147V82.2809H44.5748V78.8531Z" fill="black"/>
<path d="M51.4304 78.8531H48.0026V82.2809H51.4304V78.8531Z" fill="black"/>
<path d="M54.8583 78.8531H51.4304V82.2809H54.8583V78.8531Z" fill="black"/>
<path d="M61.7139 78.8531H58.2861V82.2809H61.7139V78.8531Z" fill="black"/>
<path d="M71.9974 78.8531H68.5696V82.2809H71.9974V78.8531Z" fill="black"/>
<path d="M75.4252 78.8531H71.9974V82.2809H75.4252V78.8531Z" fill="black"/>
<path d="M78.853 78.8531H75.4252V82.2809H78.853V78.8531Z" fill="black"/>
<path d="M85.7087 78.8531H82.2809V82.2809H85.7087V78.8531Z" fill="black"/>
<path d="M89.1365 78.8531H85.7087V82.2809H89.1365V78.8531Z" fill="black"/>
<path d="M99.42 78.8531H95.9922V82.2809H99.42V78.8531Z" fill="black"/>
<path d="M109.703 78.8531H106.276V82.2809H109.703V78.8531Z" fill="black"/>
<path d="M6.86868 82.2809H3.44086V85.7088H6.86868V82.2809Z" fill="black"/>
<path d="M10.2965 82.2809H6.86868V85.7088H10.2965V82.2809Z" fill="black"/>
<path d="M13.7243 82.2809H10.2965V85.7088H13.7243V82.2809Z" fill="black"/>
<path d="M17.1522 82.2809H13.7243V85.7088H17.1522V82.2809Z" fill="black"/>
<path d="M30.8635 82.2809H27.4356V85.7088H30.8635V82.2809Z" fill="black"/>
<path d="M37.7191 82.2809H34.2913V85.7088H37.7191V82.2809Z" fill="black"/>
<path d="M41.147 82.2809H37.7191V85.7088H41.147V82.2809Z" fill="black"/>
<path d="M44.5748 82.2809H41.147V85.7088H44.5748V82.2809Z" fill="black"/>
<path d="M61.7139 82.2809H58.2861V85.7088H61.7139V82.2809Z" fill="black"/>
<path d="M65.1417 82.2809H61.7139V85.7088H65.1417V82.2809Z" fill="black"/>
<path d="M71.9974 82.2809H68.5696V85.7088H71.9974V82.2809Z" fill="black"/>
<path d="M78.853 82.2809H75.4252V85.7088H78.853V82.2809Z" fill="black"/>
<path d="M82.2809 82.2809H78.853V85.7088H82.2809V82.2809Z" fill="black"/>
<path d="M95.9922 82.2809H92.5644V85.7088H95.9922V82.2809Z" fill="black"/>
<path d="M99.42 82.2809H95.9922V85.7088H99.42V82.2809Z" fill="black"/>
<path d="M102.848 82.2809H99.42V85.7088H102.848V82.2809Z" fill="black"/>
<path d="M13.7243 85.7088H10.2965V89.1366H13.7243V85.7088Z" fill="black"/>
<path d="M27.4356 85.7088H24.0078V89.1366H27.4356V85.7088Z" fill="black"/>
<path d="M30.8635 85.7088H27.4356V89.1366H30.8635V85.7088Z" fill="black"/>
<path d="M37.7191 85.7088H34.2913V89.1366H37.7191V85.7088Z" fill="black"/>
<path d="M41.147 85.7088H37.7191V89.1366H41.147V85.7088Z" fill="black"/>
<path d="M61.7139 85.7088H58.2861V89.1366H61.7139V85.7088Z" fill="black"/>
<path d="M65.1417 85.7088H61.7139V89.1366H65.1417V85.7088Z" fill="black"/>
<path d="M68.5696 85.7088H65.1417V89.1366H68.5696L68.5696 85.7088Z" fill="black"/>
<path d="M75.4252 85.7088H71.9974V89.1366H75.4252V85.7088Z" fill="black"/>
<path d="M78.853 85.7088H75.4252V89.1366H78.853V85.7088Z" fill="black"/>
<path d="M89.1365 85.7088H85.7087V89.1366H89.1365V85.7088Z" fill="black"/>
<path d="M92.5644 85.7088H89.1365V89.1366H92.5644V85.7088Z" fill="black"/>
<path d="M95.9922 85.7088H92.5644V89.1366H95.9922V85.7088Z" fill="black"/>
<path d="M99.42 85.7088H95.9922V89.1366H99.42V85.7088Z" fill="black"/>
<path d="M102.848 85.7088H99.42V89.1366H102.848V85.7088Z" fill="black"/>
<path d="M109.703 85.7088H106.276V89.1366H109.703V85.7088Z" fill="black"/>
<path d="M113.131 85.7088H109.703V89.1366H113.131V85.7088Z" fill="black"/>
<path d="M41.147 89.1366H37.7191V92.5644H41.147V89.1366Z" fill="black"/>
<path d="M44.5748 89.1366H41.147V92.5644H44.5748V89.1366Z" fill="black"/>
<path d="M51.4304 89.1366H48.0026V92.5644H51.4304V89.1366Z" fill="black"/>
<path d="M58.2861 89.1366H54.8583V92.5644H58.2861V89.1366Z" fill="black"/>
<path d="M61.7139 89.1366H58.2861V92.5644H61.7139V89.1366Z" fill="black"/>
<path d="M65.1417 89.1366H61.7139V92.5644H65.1417V89.1366Z" fill="black"/>
<path d="M71.9974 89.1366H68.5696L68.5696 92.5644H71.9974V89.1366Z" fill="black"/>
<path d="M75.4252 89.1366H71.9974V92.5644H75.4252V89.1366Z" fill="black"/>
<path d="M78.853 89.1366H75.4252V92.5644H78.853V89.1366Z" fill="black"/>
<path d="M89.1365 89.1366H85.7087V92.5644H89.1365V89.1366Z" fill="black"/>
<path d="M102.848 89.1366H99.42V92.5644H102.848V89.1366Z" fill="black"/>
<path d="M109.703 89.1366H106.276V92.5644H109.703V89.1366Z" fill="black"/>
<path d="M6.86868 92.5644H3.44086V95.9922H6.86868V92.5644Z" fill="black"/>
<path d="M10.2965 92.5644H6.86868V95.9922H10.2965V92.5644Z" fill="black"/>
<path d="M13.7243 92.5644H10.2965V95.9922H13.7243V92.5644Z" fill="black"/>
<path d="M17.1522 92.5644H13.7243V95.9922H17.1522V92.5644Z" fill="black"/>
<path d="M20.58 92.5644H17.1522V95.9922H20.58V92.5644Z" fill="black"/>
<path d="M24.0078 92.5644H20.58V95.9922H24.0078V92.5644Z" fill="black"/>
<path d="M27.4356 92.5644H24.0078V95.9922H27.4356V92.5644Z" fill="black"/>
<path d="M34.2913 92.5644H30.8635V95.9922H34.2913V92.5644Z" fill="black"/>
<path d="M37.7191 92.5644H34.2913V95.9922H37.7191V92.5644Z" fill="black"/>
<path d="M41.147 92.5644H37.7191V95.9922H41.147V92.5644Z" fill="black"/>
<path d="M54.8583 92.5644H51.4304V95.9922H54.8583V92.5644Z" fill="black"/>
<path d="M58.2861 92.5644H54.8583V95.9922H58.2861V92.5644Z" fill="black"/>
<path d="M61.7139 92.5644H58.2861V95.9922H61.7139V92.5644Z" fill="black"/>
<path d="M65.1417 92.5644H61.7139V95.9922H65.1417V92.5644Z" fill="black"/>
<path d="M71.9974 92.5644H68.5696V95.9922H71.9974V92.5644Z" fill="black"/>
<path d="M78.853 92.5644H75.4252V95.9922H78.853V92.5644Z" fill="black"/>
<path d="M82.2809 92.5644H78.853V95.9922H82.2809V92.5644Z" fill="black"/>
<path d="M89.1365 92.5644H85.7087V95.9922H89.1365V92.5644Z" fill="black"/>
<path d="M95.9922 92.5644H92.5644V95.9922H95.9922V92.5644Z" fill="black"/>
<path d="M102.848 92.5644H99.42V95.9922H102.848V92.5644Z" fill="black"/>
<path d="M109.703 92.5644H106.276V95.9922H109.703V92.5644Z" fill="black"/>
<path d="M113.131 92.5644H109.703V95.9922H113.131V92.5644Z" fill="black"/>
<path d="M6.86868 95.9922H3.44086V99.4201H6.86868V95.9922Z" fill="black"/>
<path d="M27.4356 95.9922H24.0078V99.4201H27.4356V95.9922Z" fill="black"/>
<path d="M37.7191 95.9922H34.2913V99.4201H37.7191V95.9922Z" fill="black"/>
<path d="M41.147 95.9922H37.7191V99.4201H41.147V95.9922Z" fill="black"/>
<path d="M44.5748 95.9922H41.147V99.4201H44.5748V95.9922Z" fill="black"/>
<path d="M48.0026 95.9922H44.5748V99.4201H48.0026V95.9922Z" fill="black"/>
<path d="M51.4304 95.9922H48.0026V99.4201H51.4304V95.9922Z" fill="black"/>
<path d="M54.8583 95.9922H51.4304V99.4201H54.8583V95.9922Z" fill="black"/>
<path d="M58.2861 95.9922H54.8583V99.4201H58.2861V95.9922Z" fill="black"/>
<path d="M68.5696 95.9922H65.1417V99.4201H68.5696L68.5696 95.9922Z" fill="black"/>
<path d="M82.2809 95.9922H78.853V99.4201H82.2809V95.9922Z" fill="black"/>
<path d="M85.7087 95.9922H82.2809V99.4201H85.7087V95.9922Z" fill="black"/>
<path d="M89.1365 95.9922H85.7087V99.4201H89.1365V95.9922Z" fill="black"/>
<path d="M102.848 95.9922H99.42V99.4201H102.848V95.9922Z" fill="black"/>
<path d="M106.276 95.9922H102.848V99.4201H106.276V95.9922Z" fill="black"/>
<path d="M109.703 95.9922H106.276V99.4201H109.703V95.9922Z" fill="black"/>
<path d="M113.131 95.9922H109.703V99.4201H113.131V95.9922Z" fill="black"/>
<path d="M6.86868 99.4201H3.44086V102.848H6.86868V99.4201Z" fill="black"/>
<path d="M13.7243 99.4201H10.2965V102.848H13.7243V99.4201Z" fill="black"/>
<path d="M17.1522 99.4201H13.7243V102.848H17.1522V99.4201Z" fill="black"/>
<path d="M20.58 99.4201H17.1522V102.848H20.58V99.4201Z" fill="black"/>
<path d="M27.4356 99.4201H24.0078V102.848H27.4356V99.4201Z" fill="black"/>
<path d="M41.147 99.4201H37.7191V102.848H41.147V99.4201Z" fill="black"/>
<path d="M48.0026 99.4201H44.5748V102.848H48.0026V99.4201Z" fill="black"/>
<path d="M54.8583 99.4201H51.4304V102.848H54.8583V99.4201Z" fill="black"/>
<path d="M58.2861 99.4201H54.8583V102.848H58.2861V99.4201Z" fill="black"/>
<path d="M61.7139 99.4201H58.2861V102.848H61.7139V99.4201Z" fill="black"/>
<path d="M65.1417 99.4201H61.7139V102.848H65.1417V99.4201Z" fill="black"/>
<path d="M68.5696 99.4201H65.1417V102.848H68.5696V99.4201Z" fill="black"/>
<path d="M71.9974 99.4201H68.5696V102.848H71.9974V99.4201Z" fill="black"/>
<path d="M82.2809 99.4201H78.853V102.848H82.2809V99.4201Z" fill="black"/>
<path d="M89.1365 99.4201H85.7087V102.848H89.1365V99.4201Z" fill="black"/>
<path d="M92.5644 99.4201H89.1365V102.848H92.5644V99.4201Z" fill="black"/>
<path d="M95.9922 99.4201H92.5644V102.848H95.9922V99.4201Z" fill="black"/>
<path d="M99.42 99.4201H95.9922V102.848H99.42V99.4201Z" fill="black"/>
<path d="M102.848 99.4201H99.42V102.848H102.848V99.4201Z" fill="black"/>
<path d="M113.131 99.4201H109.703V102.848H113.131V99.4201Z" fill="black"/>
<path d="M116.559 99.4201H113.131V102.848H116.559V99.4201Z" fill="black"/>
<path d="M6.86868 102.848H3.44086V106.276H6.86868V102.848Z" fill="black"/>
<path d="M13.7243 102.848H10.2965V106.276H13.7243V102.848Z" fill="black"/>
<path d="M17.1522 102.848H13.7243V106.276H17.1522V102.848Z" fill="black"/>
<path d="M20.58 102.848H17.1522V106.276H20.58V102.848Z" fill="black"/>
<path d="M27.4356 102.848H24.0078V106.276H27.4356V102.848Z" fill="black"/>
<path d="M34.2913 102.848H30.8635V106.276H34.2913V102.848Z" fill="black"/>
<path d="M37.7191 102.848H34.2913V106.276H37.7191V102.848Z" fill="black"/>
<path d="M41.147 102.848H37.7191V106.276H41.147V102.848Z" fill="black"/>
<path d="M44.5748 102.848H41.147V106.276H44.5748V102.848Z" fill="black"/>
<path d="M48.0026 102.848H44.5748V106.276H48.0026V102.848Z" fill="black"/>
<path d="M54.8583 102.848H51.4304V106.276H54.8583V102.848Z" fill="black"/>
<path d="M58.2861 102.848H54.8583V106.276H58.2861V102.848Z" fill="black"/>
<path d="M61.7139 102.848H58.2861V106.276H61.7139V102.848Z" fill="black"/>
<path d="M65.1417 102.848H61.7139V106.276H65.1417V102.848Z" fill="black"/>
<path d="M75.4252 102.848H71.9974V106.276H75.4252V102.848Z" fill="black"/>
<path d="M82.2809 102.848H78.853V106.276H82.2809V102.848Z" fill="black"/>
<path d="M85.7087 102.848H82.2809V106.276H85.7087V102.848Z" fill="black"/>
<path d="M92.5644 102.848H89.1365V106.276H92.5644V102.848Z" fill="black"/>
<path d="M99.42 102.848H95.9922V106.276H99.42V102.848Z" fill="black"/>
<path d="M106.276 102.848H102.848V106.276H106.276V102.848Z" fill="black"/>
<path d="M109.703 102.848H106.276V106.276H109.703V102.848Z" fill="black"/>
<path d="M113.131 102.848H109.703V106.276H113.131V102.848Z" fill="black"/>
<path d="M6.86868 106.276H3.44086V109.704H6.86868V106.276Z" fill="black"/>
<path d="M13.7243 106.276H10.2965V109.704H13.7243V106.276Z" fill="black"/>
<path d="M17.1522 106.276H13.7243V109.704H17.1522V106.276Z" fill="black"/>
<path d="M20.58 106.276H17.1522V109.704H20.58V106.276Z" fill="black"/>
<path d="M27.4356 106.276H24.0078V109.704H27.4356V106.276Z" fill="black"/>
<path d="M37.7191 106.276H34.2913V109.704H37.7191V106.276Z" fill="black"/>
<path d="M54.8583 106.276H51.4304V109.704H54.8583V106.276Z" fill="black"/>
<path d="M58.2861 106.276H54.8583V109.704H58.2861V106.276Z" fill="black"/>
<path d="M61.7139 106.276H58.2861V109.704H61.7139V106.276Z" fill="black"/>
<path d="M68.5696 106.276H65.1417V109.704H68.5696V106.276Z" fill="black"/>
<path d="M75.4252 106.276H71.9974V109.704H75.4252V106.276Z" fill="black"/>
<path d="M78.853 106.276H75.4252V109.704H78.853V106.276Z" fill="black"/>
<path d="M82.2809 106.276H78.853V109.704H82.2809V106.276Z" fill="black"/>
<path d="M99.42 106.276H95.9922V109.704H99.42V106.276Z" fill="black"/>
<path d="M102.848 106.276H99.42V109.704H102.848V106.276Z" fill="black"/>
<path d="M109.703 106.276H106.276V109.704H109.703V106.276Z" fill="black"/>
<path d="M116.559 106.276H113.131V109.704H116.559V106.276Z" fill="black"/>
<path d="M6.86868 109.704H3.44086V113.131H6.86868V109.704Z" fill="black"/>
<path d="M27.4356 109.704H24.0078V113.131H27.4356V109.704Z" fill="black"/>
<path d="M34.2913 109.704H30.8635V113.131H34.2913V109.704Z" fill="black"/>
<path d="M37.7191 109.704H34.2913V113.131H37.7191V109.704Z" fill="black"/>
<path d="M41.147 109.704H37.7191V113.131H41.147V109.704Z" fill="black"/>
<path d="M48.0026 109.704H44.5748V113.131H48.0026V109.704Z" fill="black"/>
<path d="M51.4304 109.704H48.0026V113.131H51.4304V109.704Z" fill="black"/>
<path d="M65.1417 109.704H61.7139V113.131H65.1417V109.704Z" fill="black"/>
<path d="M68.5696 109.704H65.1417V113.131H68.5696V109.704Z" fill="black"/>
<path d="M82.2809 109.704H78.853V113.131H82.2809V109.704Z" fill="black"/>
<path d="M99.42 109.704H95.9922V113.131H99.42V109.704Z" fill="black"/>
<path d="M102.848 109.704H99.42V113.131H102.848V109.704Z" fill="black"/>
<path d="M6.86868 113.131H3.44086V116.559H6.86868V113.131Z" fill="black"/>
<path d="M10.2965 113.131H6.86868V116.559H10.2965V113.131Z" fill="black"/>
<path d="M13.7243 113.131H10.2965V116.559H13.7243V113.131Z" fill="black"/>
<path d="M17.1522 113.131H13.7243V116.559H17.1522V113.131Z" fill="black"/>
<path d="M20.58 113.131H17.1522V116.559H20.58V113.131Z" fill="black"/>
<path d="M24.0078 113.131H20.58V116.559H24.0078V113.131Z" fill="black"/>
<path d="M27.4356 113.131H24.0078V116.559H27.4356V113.131Z" fill="black"/>
<path d="M34.2913 113.131H30.8635V116.559H34.2913V113.131Z" fill="black"/>
<path d="M37.7191 113.131H34.2913V116.559H37.7191V113.131Z" fill="black"/>
<path d="M41.147 113.131H37.7191V116.559H41.147V113.131Z" fill="black"/>
<path d="M44.5748 113.131H41.147V116.559H44.5748V113.131Z" fill="black"/>
<path d="M48.0026 113.131H44.5748V116.559H48.0026V113.131Z" fill="black"/>
<path d="M65.1417 113.131H61.7139V116.559H65.1417V113.131Z" fill="black"/>
<path d="M75.4252 113.131H71.9974V116.559H75.4252V113.131Z" fill="black"/>
<path d="M78.853 113.131H75.4252V116.559H78.853V113.131Z" fill="black"/>
<path d="M82.2809 113.131H78.853V116.559H82.2809V113.131Z" fill="black"/>
<path d="M99.42 113.131H95.9922V116.559H99.42V113.131Z" fill="black"/>
<path d="M102.848 113.131H99.42V116.559H102.848V113.131Z" fill="black"/>
<path d="M106.276 113.131H102.848V116.559H106.276V113.131Z" fill="black"/>
<path d="M113.131 113.131H109.703V116.559H113.131V113.131Z" fill="black"/>
</g>
<defs>
<clipPath id="clip0_1_575">
<rect width="120" height="120" fill="white"/>
</clipPath>
</defs>
</svg>
