<svg width="28" height="29" viewBox="0 0 28 29" fill="none" xmlns="http://www.w3.org/2000/svg">
<path d="M9.5 27V21C8.225 20.9 6.975 20.7625 5.75 20.5875C4.525 20.4125 3.3 20.1875 2.075 19.9125C1.65 19.8125 1.3125 19.575 1.0625 19.2C0.8125 18.825 0.75 18.425 0.875 18C1 17.575 1.2565 17.2625 1.6445 17.0625C2.0325 16.8625 2.4385 16.8125 2.8625 16.9125C4.6875 17.3375 6.5315 17.625 8.3945 17.775C10.2575 17.925 12.126 18 14 18C15.875 18 17.744 17.925 19.607 17.775C21.47 17.625 23.3135 17.3375 25.1375 16.9125C25.5875 16.8125 26 16.8625 26.375 17.0625C26.75 17.2625 27 17.575 27.125 18C27.25 18.425 27.181 18.825 26.918 19.2C26.655 19.575 26.3115 19.8125 25.8875 19.9125C24.6625 20.1875 23.4375 20.4125 22.2125 20.5875C20.9875 20.7625 19.75 20.9 18.5 21V27C18.5 27.425 18.3565 27.7815 18.0695 28.0695C17.7825 28.3575 17.426 28.501 17 28.5H11C10.575 28.5 10.2185 28.356 9.9305 28.068C9.6425 27.78 9.499 27.424 9.5 27ZM14 16.5C13.15 16.5 12.4375 16.2125 11.8625 15.6375C11.2875 15.0625 11 14.35 11 13.5C11 12.675 11.2875 11.9685 11.8625 11.3805C12.4375 10.7925 13.15 10.499 14 10.5C14.825 10.5 15.5315 10.794 16.1195 11.382C16.7075 11.97 17.001 12.676 17 13.5C17 14.35 16.706 15.0625 16.118 15.6375C15.53 16.2125 14.824 16.5 14 16.5ZM2.75 12C2.1 12 1.5625 11.7875 1.1375 11.3625C0.7125 10.9375 0.5 10.4 0.5 9.75C0.5 9.125 0.7125 8.5935 1.1375 8.1555C1.5625 7.7175 2.1 7.499 2.75 7.5C3.375 7.5 3.9065 7.719 4.3445 8.157C4.7825 8.595 5.001 9.126 5 9.75C5 10.4 4.781 10.9375 4.343 11.3625C3.905 11.7875 3.374 12 2.75 12ZM25.25 12C24.6 12 24.0625 11.7875 23.6375 11.3625C23.2125 10.9375 23 10.4 23 9.75C23 9.125 23.2125 8.5935 23.6375 8.1555C24.0625 7.7175 24.6 7.499 25.25 7.5C25.875 7.5 26.4065 7.719 26.8445 8.157C27.2825 8.595 27.501 9.126 27.5 9.75C27.5 10.4 27.281 10.9375 26.843 11.3625C26.405 11.7875 25.874 12 25.25 12ZM6.875 6.375C6.225 6.375 5.6875 6.1625 5.2625 5.7375C4.8375 5.3125 4.625 4.775 4.625 4.125C4.625 3.5 4.8375 2.9685 5.2625 2.5305C5.6875 2.0925 6.225 1.874 6.875 1.875C7.5 1.875 8.0315 2.094 8.4695 2.532C8.9075 2.97 9.126 3.501 9.125 4.125C9.125 4.775 8.906 5.3125 8.468 5.7375C8.03 6.1625 7.499 6.375 6.875 6.375ZM21.125 6.375C20.475 6.375 19.9375 6.1625 19.5125 5.7375C19.0875 5.3125 18.875 4.775 18.875 4.125C18.875 3.5 19.0875 2.9685 19.5125 2.5305C19.9375 2.0925 20.475 1.874 21.125 1.875C21.75 1.875 22.2815 2.094 22.7195 2.532C23.1575 2.97 23.376 3.501 23.375 4.125C23.375 4.775 23.156 5.3125 22.718 5.7375C22.28 6.1625 21.749 6.375 21.125 6.375ZM14 4.5C13.35 4.5 12.8125 4.2875 12.3875 3.8625C11.9625 3.4375 11.75 2.9 11.75 2.25C11.75 1.625 11.9625 1.0935 12.3875 0.655503C12.8125 0.217503 13.35 -0.000996583 14 3.41686e-06C14.625 3.41686e-06 15.1565 0.219003 15.5945 0.657003C16.0325 1.095 16.251 1.626 16.25 2.25C16.25 2.9 16.031 3.4375 15.593 3.8625C15.155 4.2875 14.624 4.5 14 4.5Z" fill="#FFB637"/>
</svg>
