<svg width="30" height="28" viewBox="0 0 30 28" fill="none" xmlns="http://www.w3.org/2000/svg">
<path d="M3 12.5V24.5H9V12.5H3ZM12 3.5V24.5H18V3.5H12ZM21 15.5V24.5H27V15.5H21ZM27 27.5H3C2.175 27.5 1.4685 27.206 0.880502 26.618C0.292502 26.03 -0.000997453 25.324 2.54669e-06 24.5V12.5C2.54669e-06 11.675 0.294003 10.9685 0.882003 10.3805C1.47 9.7925 2.176 9.499 3 9.5H9V3.5C9 2.675 9.294 1.9685 9.882 1.3805C10.47 0.792502 11.176 0.499003 12 0.500003H18C18.825 0.500003 19.5315 0.794003 20.1195 1.382C20.7075 1.97 21.001 2.676 21 3.5V12.5H27C27.825 12.5 28.5315 12.794 29.1195 13.382C29.7075 13.97 30.001 14.676 30 15.5V24.5C30 25.325 29.706 26.0315 29.118 26.6195C28.53 27.2075 27.824 27.501 27 27.5Z" fill="#FFB637"/>
</svg>
