<svg width="24" height="31" viewBox="0 0 24 31" fill="none" xmlns="http://www.w3.org/2000/svg">
<path d="M10.3875 16.125L12 14.8875L13.575 16.125C13.85 16.35 14.15 16.3565 14.475 16.1445C14.8 15.9325 14.9 15.651 14.775 15.3L14.1375 13.275L15.9375 11.85C16.2125 11.625 16.294 11.3435 16.182 11.0055C16.07 10.6675 15.8385 10.499 15.4875 10.5H13.35L12.7125 8.5125C12.5875 8.1625 12.35 7.9875 12 7.9875C11.65 7.9875 11.4125 8.1625 11.2875 8.5125L10.65 10.5H8.5125C8.1625 10.5 7.925 10.675 7.8 11.025C7.675 11.375 7.75 11.65 8.025 11.85L9.825 13.275L9.1875 15.3C9.0625 15.65 9.1565 15.9315 9.4695 16.1445C9.7825 16.3575 10.0885 16.351 10.3875 16.125ZM4.9875 30.825C4.4875 31 4.031 30.9375 3.618 30.6375C3.205 30.3375 2.999 29.9375 3 29.4375V19.9125C2.05 18.8625 1.3125 17.6625 0.7875 16.3125C0.2625 14.9625 0 13.525 0 12C0 8.65 1.1625 5.8125 3.4875 3.4875C5.8125 1.1625 8.65 0 12 0C15.35 0 18.1875 1.1625 20.5125 3.4875C22.8375 5.8125 24 8.65 24 12C24 13.525 23.7375 14.9625 23.2125 16.3125C22.6875 17.6625 21.95 18.8625 21 19.9125V29.4375C21 29.9375 20.7935 30.3375 20.3805 30.6375C19.9675 30.9375 19.5115 31 19.0125 30.825L12 28.5L4.9875 30.825ZM12 21C14.5 21 16.625 20.125 18.375 18.375C20.125 16.625 21 14.5 21 12C21 9.5 20.125 7.375 18.375 5.625C16.625 3.875 14.5 3 12 3C9.5 3 7.375 3.875 5.625 5.625C3.875 7.375 3 9.5 3 12C3 14.5 3.875 16.625 5.625 18.375C7.375 20.125 9.5 21 12 21ZM6 27.0375L12 25.5L18 27.0375V22.3875C17.125 22.8875 16.181 23.2815 15.168 23.5695C14.155 23.8575 13.099 24.001 12 24C10.9 24 9.8435 23.856 8.8305 23.568C7.8175 23.28 6.874 22.8865 6 22.3875V27.0375Z" fill="#FFB637"/>
</svg>
