<svg width="31" height="31" viewBox="0 0 31 31" fill="none" xmlns="http://www.w3.org/2000/svg">
<path d="M21.9125 23.1875L21.275 22.55C21.05 22.325 20.7815 22.2125 20.4695 22.2125C20.1575 22.2125 19.8885 22.325 19.6625 22.55C19.4375 22.775 19.325 23.0375 19.325 23.3375C19.325 23.6375 19.4375 23.9 19.6625 24.125L21.125 25.5875C21.35 25.8125 21.6125 25.925 21.9125 25.925C22.2125 25.925 22.475 25.8125 22.7 25.5875L26.3375 22.025C26.5625 21.8 26.675 21.531 26.675 21.218C26.675 20.905 26.5625 20.6365 26.3375 20.4125C26.1125 20.1875 25.8435 20.075 25.5305 20.075C25.2175 20.075 24.949 20.1875 24.725 20.4125L21.9125 23.1875ZM6.5 9.5H21.5C21.925 9.5 22.2815 9.356 22.5695 9.068C22.8575 8.78 23.001 8.424 23 8C23 7.575 22.856 7.2185 22.568 6.9305C22.28 6.6425 21.924 6.499 21.5 6.5H6.5C6.075 6.5 5.7185 6.644 5.4305 6.932C5.1425 7.22 4.999 7.576 5 8C5 8.425 5.144 8.7815 5.432 9.0695C5.72 9.3575 6.076 9.501 6.5 9.5ZM23 30.5C20.925 30.5 19.156 29.7685 17.693 28.3055C16.23 26.8425 15.499 25.074 15.5 23C15.5 20.925 16.2315 19.156 17.6945 17.693C19.1575 16.23 20.926 15.499 23 15.5C25.075 15.5 26.844 16.2315 28.307 17.6945C29.77 19.1575 30.501 20.926 30.5 23C30.5 25.075 29.7685 26.844 28.3055 28.307C26.8425 29.77 25.074 30.501 23 30.5ZM0.5 28.8125V3.5C0.5 2.675 0.794 1.9685 1.382 1.3805C1.97 0.792502 2.676 0.499003 3.5 0.500003H24.5C25.325 0.500003 26.0315 0.794003 26.6195 1.382C27.2075 1.97 27.501 2.676 27.5 3.5V13.5125C27.025 13.2875 26.5375 13.1 26.0375 12.95C25.5375 12.8 25.025 12.6875 24.5 12.6125V3.5H3.5V24.575H12.6125C12.7375 25.35 12.9315 26.0875 13.1945 26.7875C13.4575 27.4875 13.801 28.15 14.225 28.775C14.1 28.8 13.9685 28.781 13.8305 28.718C13.6925 28.655 13.574 28.574 13.475 28.475L12.275 27.275C12.125 27.125 11.95 27.05 11.75 27.05C11.55 27.05 11.375 27.125 11.225 27.275L10.025 28.475C9.875 28.625 9.7 28.7 9.5 28.7C9.3 28.7 9.125 28.625 8.975 28.475L7.775 27.275C7.625 27.125 7.45 27.05 7.25 27.05C7.05 27.05 6.875 27.125 6.725 27.275L5.525 28.475C5.375 28.625 5.2 28.7 5 28.7C4.8 28.7 4.625 28.625 4.475 28.475L3.275 27.275C3.125 27.125 2.95 27.05 2.75 27.05C2.55 27.05 2.375 27.125 2.225 27.275L1.025 28.475L0.5 28.8125ZM6.5 21.5H12.6125C12.6875 20.975 12.8 20.4625 12.95 19.9625C13.1 19.4625 13.2875 18.975 13.5125 18.5H6.5C6.075 18.5 5.7185 18.644 5.4305 18.932C5.1425 19.22 4.999 19.576 5 20C5 20.425 5.144 20.7815 5.432 21.0695C5.72 21.3575 6.076 21.501 6.5 21.5ZM6.5 15.5H15.65C16.6 14.575 17.7065 13.8435 18.9695 13.3055C20.2325 12.7675 21.576 12.499 23 12.5H6.5C6.075 12.5 5.7185 12.644 5.4305 12.932C5.1425 13.22 4.999 13.576 5 14C5 14.425 5.144 14.7815 5.432 15.0695C5.72 15.3575 6.076 15.501 6.5 15.5Z" fill="#FFB637"/>
</svg>
