<svg width="34" height="30" viewBox="0 0 34 30" fill="none" xmlns="http://www.w3.org/2000/svg">
<path d="M16.8125 27C16.9125 27 17.0125 26.975 17.1125 26.925C17.2125 26.875 17.2875 26.825 17.3375 26.775L29.6375 14.475C29.9375 14.175 30.1565 13.8375 30.2945 13.4625C30.4325 13.0875 30.501 12.7125 30.5 12.3375C30.5 11.9375 30.431 11.556 30.293 11.193C30.155 10.83 29.9365 10.5115 29.6375 10.2375L23.2625 3.8625C22.9875 3.5625 22.6685 3.3435 22.3055 3.2055C21.9425 3.0675 21.562 2.999 21.164 3C20.789 3 20.414 3.069 20.039 3.207C19.664 3.345 19.3265 3.5635 19.0265 3.8625L18.614 4.275L21.389 7.0875C21.764 7.4375 22.039 7.8375 22.214 8.2875C22.389 8.7375 22.4765 9.2125 22.4765 9.7125C22.4765 10.7625 22.1205 11.644 21.4085 12.357C20.6965 13.07 19.815 13.426 18.764 13.425C18.264 13.425 17.7825 13.3375 17.3195 13.1625C16.8565 12.9875 16.4505 12.725 16.1015 12.375L13.2875 9.6L6.72499 16.1625C6.64999 16.2375 6.59349 16.319 6.55549 16.407C6.51749 16.495 6.49899 16.588 6.49999 16.686C6.49999 16.886 6.57499 17.0675 6.72499 17.2305C6.87499 17.3935 7.04999 17.4745 7.24999 17.4735C7.34999 17.4735 7.44999 17.4485 7.54999 17.3985C7.64999 17.3485 7.72499 17.2985 7.77499 17.2485L12.875 12.1485L14.975 14.2485L9.91249 19.3485C9.83749 19.4235 9.78099 19.505 9.74299 19.593C9.70499 19.681 9.68649 19.7745 9.68749 19.8735C9.68749 20.0735 9.76249 20.2485 9.91249 20.3985C10.0625 20.5485 10.2375 20.6235 10.4375 20.6235C10.5375 20.6235 10.6375 20.5985 10.7375 20.5485C10.8375 20.4985 10.9125 20.4485 10.9625 20.3985L16.0625 15.336L18.1625 17.436L13.1 22.536C13.025 22.586 12.9685 22.661 12.9305 22.761C12.8925 22.861 12.874 22.961 12.875 23.061C12.875 23.261 12.95 23.436 13.1 23.586C13.25 23.736 13.425 23.811 13.625 23.811C13.725 23.811 13.819 23.792 13.907 23.754C13.995 23.716 14.076 23.66 14.15 23.586L19.25 18.5235L21.35 20.6235L16.25 25.7235C16.175 25.7985 16.1185 25.8795 16.0805 25.9665C16.0425 26.0535 16.024 26.1475 16.025 26.2485C16.025 26.4485 16.1065 26.6235 16.2695 26.7735C16.4325 26.9235 16.6135 27 16.8125 27ZM16.775 30C15.85 30 15.031 29.6935 14.318 29.0805C13.605 28.4675 13.1865 27.699 13.0625 26.775C12.2125 26.65 11.5 26.3 10.925 25.725C10.35 25.15 9.99999 24.4375 9.87499 23.5875C9.02499 23.4625 8.31849 23.106 7.75549 22.518C7.19249 21.93 6.84899 21.224 6.72499 20.4C5.77499 20.275 4.99999 19.8625 4.39999 19.1625C3.79999 18.4625 3.49999 17.6375 3.49999 16.6875C3.49999 16.1875 3.59399 15.7065 3.78199 15.2445C3.96999 14.7825 4.23849 14.376 4.58749 14.025L13.2875 5.3625L18.2 10.275C18.25 10.35 18.325 10.4065 18.425 10.4445C18.525 10.4825 18.625 10.501 18.725 10.5C18.95 10.5 19.1375 10.4315 19.2875 10.2945C19.4375 10.1575 19.5125 9.976 19.5125 9.75C19.5125 9.65 19.4935 9.55 19.4555 9.45C19.4175 9.35 19.3615 9.275 19.2875 9.225L13.925 3.8625C13.65 3.5625 13.3315 3.3435 12.9695 3.2055C12.6075 3.0675 12.226 2.999 11.825 3C11.45 3 11.075 3.069 10.7 3.207C10.325 3.345 9.98749 3.5635 9.68749 3.8625L4.39999 9.1875C4.17499 9.4125 3.98749 9.675 3.83749 9.975C3.68749 10.275 3.58749 10.575 3.53749 10.875C3.48749 11.175 3.48749 11.4815 3.53749 11.7945C3.58749 12.1075 3.68749 12.401 3.83749 12.675L1.66249 14.85C1.23749 14.275 0.924985 13.644 0.724985 12.957C0.524985 12.27 0.449985 11.576 0.499985 10.875C0.549985 10.175 0.724985 9.4935 1.02499 8.8305C1.32499 8.1675 1.73749 7.574 2.26249 7.05L7.54999 1.7625C8.14999 1.1875 8.81899 0.75 9.55699 0.45C10.295 0.15 11.051 0 11.825 0C12.6 0 13.3565 0.15 14.0945 0.45C14.8325 0.75 15.4885 1.1875 16.0625 1.7625L16.475 2.175L16.8875 1.7625C17.4875 1.1875 18.1565 0.75 18.8945 0.45C19.6325 0.15 20.3885 0 21.1625 0C21.9375 0 22.694 0.15 23.432 0.45C24.17 0.75 24.826 1.1875 25.4 1.7625L31.7375 8.1C32.3125 8.675 32.75 9.3375 33.05 10.0875C33.35 10.8375 33.5 11.6 33.5 12.375C33.5 13.15 33.35 13.9065 33.05 14.6445C32.75 15.3825 32.3125 16.0385 31.7375 16.6125L19.4375 28.875C19.0875 29.225 18.681 29.5 18.218 29.7C17.755 29.9 17.274 30 16.775 30Z" fill="#FFB637"/>
</svg>
