<svg width="24" height="30" viewBox="0 0 24 30" fill="none" xmlns="http://www.w3.org/2000/svg">
<path d="M12 20.25C12.625 20.25 13.1565 20.031 13.5945 19.593C14.0325 19.155 14.251 18.624 14.25 18V16.5H15.75C16.375 16.5 16.9065 16.281 17.3445 15.843C17.7825 15.405 18.001 14.874 18 14.25C18 13.625 17.781 13.0935 17.343 12.6555C16.905 12.2175 16.374 11.999 15.75 12H14.25V10.5C14.25 9.87498 14.031 9.34348 13.593 8.90548C13.155 8.46747 12.624 8.24898 12 8.24998C11.375 8.24998 10.8435 8.46898 10.4055 8.90698C9.9675 9.34498 9.749 9.87598 9.75 10.5V12H8.25C7.625 12 7.0935 12.219 6.6555 12.657C6.2175 13.095 5.999 13.626 6 14.25C6 14.875 6.219 15.4065 6.657 15.8445C7.095 16.2825 7.626 16.501 8.25 16.5H9.75V18C9.75 18.625 9.969 19.1565 10.407 19.5945C10.845 20.0325 11.376 20.251 12 20.25ZM12 29.8875H11.625C11.5 29.8875 11.3875 29.8625 11.2875 29.8125C8.0125 28.7875 5.3125 26.756 3.1875 23.718C1.0625 20.68 0 17.324 0 13.65V6.56248C0 5.93748 0.1815 5.37498 0.5445 4.87498C0.9075 4.37498 1.376 4.01248 1.95 3.78748L10.95 0.412476C11.3 0.287476 11.65 0.224976 12 0.224976C12.35 0.224976 12.7 0.287476 13.05 0.412476L22.05 3.78748C22.625 4.01248 23.094 4.37498 23.457 4.87498C23.82 5.37498 24.001 5.93748 24 6.56248V13.65C24 17.325 22.9375 20.6815 20.8125 23.7195C18.6875 26.7575 15.9875 28.7885 12.7125 29.8125C12.5875 29.8625 12.35 29.8875 12 29.8875ZM12 26.85C14.6 26.025 16.75 24.375 18.45 21.9C20.15 19.425 21 16.675 21 13.65V6.56248L12 3.18748L3 6.56248V13.65C3 16.675 3.85 19.425 5.55 21.9C7.25 24.375 9.4 26.025 12 26.85Z" fill="#FFB637"/>
</svg>
