<svg width="30" height="30" viewBox="0 0 30 30" fill="none" xmlns="http://www.w3.org/2000/svg">
<path d="M18.375 29.1C17.8 29.675 17.0875 29.9625 16.2375 29.9625C15.3875 29.9625 14.675 29.675 14.1 29.1L0.900009 15.9C0.625009 15.625 0.406009 15.3 0.243009 14.925C0.0800091 14.55 -0.000990854 14.15 9.14635e-06 13.725V3C9.14635e-06 2.175 0.294009 1.4685 0.882009 0.880502C1.47001 0.292502 2.17601 -0.000997453 3.00001 2.54669e-06H13.725C14.15 2.54669e-06 14.55 0.0815027 14.925 0.244503C15.3 0.407503 15.625 0.626002 15.9 0.900002L29.1 14.1375C29.675 14.7125 29.9625 15.419 29.9625 16.257C29.9625 17.095 29.675 17.801 29.1 18.375L18.375 29.1ZM16.2375 27L26.9625 16.275L13.725 3H3.00001V13.725L16.2375 27ZM6.75001 9C7.37501 9 7.90651 8.781 8.34451 8.343C8.78251 7.905 9.00101 7.374 9.00001 6.75C9.00001 6.125 8.78101 5.5935 8.34301 5.1555C7.90501 4.7175 7.37401 4.499 6.75001 4.5C6.12501 4.5 5.59351 4.719 5.15551 5.157C4.71751 5.595 4.49901 6.126 4.50001 6.75C4.50001 7.375 4.71901 7.9065 5.15701 8.3445C5.59501 8.7825 6.12601 9.001 6.75001 9Z" fill="#FFB637"/>
</svg>
