<svg width="32" height="32" viewBox="0 0 32 32" fill="none" xmlns="http://www.w3.org/2000/svg">
<g id="material-symbols:library-add-outline-rounded">
<path id="Vector" d="M18.6667 18.6667C19.0445 18.6667 19.3614 18.5387 19.6174 18.2827C19.8725 18.0276 20 17.7111 20 17.3334V14.6667H22.6667C23.0445 14.6667 23.3609 14.5387 23.616 14.2827C23.872 14.0276 24 13.7111 24 13.3334C24 12.9556 23.872 12.6387 23.616 12.3827C23.3609 12.1276 23.0445 12 22.6667 12H20V9.33335C20 8.95558 19.8725 8.63869 19.6174 8.38269C19.3614 8.12758 19.0445 8.00002 18.6667 8.00002C18.2889 8.00002 17.9725 8.12758 17.7174 8.38269C17.4614 8.63869 17.3334 8.95558 17.3334 9.33335V12H14.6667C14.2889 12 13.9725 12.1276 13.7174 12.3827C13.4614 12.6387 13.3334 12.9556 13.3334 13.3334C13.3334 13.7111 13.4614 14.0276 13.7174 14.2827C13.9725 14.5387 14.2889 14.6667 14.6667 14.6667H17.3334V17.3334C17.3334 17.7111 17.4614 18.0276 17.7174 18.2827C17.9725 18.5387 18.2889 18.6667 18.6667 18.6667ZM10.6667 24C9.93335 24 9.3058 23.7391 8.78402 23.2174C8.26135 22.6947 8.00002 22.0667 8.00002 21.3334V5.33335C8.00002 4.60002 8.26135 3.97202 8.78402 3.44935C9.3058 2.92758 9.93335 2.66669 10.6667 2.66669H26.6667C27.4 2.66669 28.028 2.92758 28.5507 3.44935C29.0725 3.97202 29.3334 4.60002 29.3334 5.33335V21.3334C29.3334 22.0667 29.0725 22.6947 28.5507 23.2174C28.028 23.7391 27.4 24 26.6667 24H10.6667ZM10.6667 21.3334H26.6667V5.33335H10.6667V21.3334ZM5.33335 29.3334C4.60002 29.3334 3.97246 29.0725 3.45069 28.5507C2.92802 28.028 2.66669 27.4 2.66669 26.6667V9.33335C2.66669 8.95558 2.79469 8.63869 3.05069 8.38269C3.3058 8.12758 3.62224 8.00002 4.00002 8.00002C4.3778 8.00002 4.69469 8.12758 4.95069 8.38269C5.2058 8.63869 5.33335 8.95558 5.33335 9.33335V26.6667H22.6667C23.0445 26.6667 23.3609 26.7947 23.616 27.0507C23.872 27.3058 24 27.6222 24 28C24 28.3778 23.872 28.6942 23.616 28.9494C23.3609 29.2054 23.0445 29.3334 22.6667 29.3334H5.33335Z" fill="#5EC3C5"/>
</g>
</svg>
