<svg width="32" height="32" viewBox="0 0 32 32" fill="none" xmlns="http://www.w3.org/2000/svg">
<g id="material-symbols:group-add-outline-rounded" clip-path="url(#clip0_1_468)">
<path id="Vector" d="M16.6667 15.9333C17.3111 15.2222 17.8058 14.4111 18.1507 13.5C18.4956 12.5889 18.6676 11.6444 18.6667 10.6666C18.6667 9.68887 18.4942 8.74442 18.1493 7.83331C17.8045 6.9222 17.3102 6.11109 16.6667 5.39998C18 5.57776 19.1111 6.16665 20 7.16665C20.8889 8.16665 21.3333 9.33331 21.3333 10.6666C21.3333 12 20.8889 13.1666 20 14.1666C19.1111 15.1666 18 15.7555 16.6667 15.9333ZM23.3667 26.6666C23.5667 26.5111 23.7222 26.3164 23.8333 26.0826C23.9445 25.8489 24 25.588 24 25.3V22.6666C24 21.8666 23.8222 21.1053 23.4667 20.3826C23.1111 19.66 22.6444 19.0213 22.0667 18.4666C23.2 18.8666 24.2502 19.3835 25.2173 20.0173C26.1845 20.6511 26.6676 21.5342 26.6667 22.6666V25.3333C26.6667 25.7111 26.5387 26.028 26.2827 26.284C26.0267 26.54 25.7102 26.6675 25.3333 26.6666H23.3667ZM28 17.3333C27.6222 17.3333 27.3053 17.2053 27.0493 16.9493C26.7933 16.6933 26.6658 16.3769 26.6667 16V14.6666H25.3333C24.9556 14.6666 24.6387 14.5386 24.3827 14.2826C24.1267 14.0266 23.9991 13.7102 24 13.3333C24 12.9555 24.128 12.6386 24.384 12.3826C24.64 12.1266 24.9564 11.9991 25.3333 12H26.6667V10.6666C26.6667 10.2889 26.7947 9.97198 27.0507 9.71598C27.3067 9.45998 27.6231 9.33242 28 9.33331C28.3778 9.33331 28.6947 9.46131 28.9507 9.71731C29.2067 9.97331 29.3342 10.2898 29.3333 10.6666V12H30.6667C31.0445 12 31.3613 12.128 31.6173 12.384C31.8733 12.64 32.0009 12.9564 32 13.3333C32 13.7111 31.872 14.028 31.616 14.284C31.36 14.54 31.0436 14.6675 30.6667 14.6666H29.3333V16C29.3333 16.3778 29.2053 16.6946 28.9493 16.9506C28.6933 17.2066 28.3769 17.3342 28 17.3333ZM10.6667 16C9.20001 16 7.94445 15.4778 6.9 14.4333C5.85556 13.3889 5.33334 12.1333 5.33334 10.6666C5.33334 9.19998 5.85556 7.94442 6.9 6.89998C7.94445 5.85554 9.20001 5.33331 10.6667 5.33331C12.1333 5.33331 13.3889 5.85554 14.4333 6.89998C15.4778 7.94442 16 9.19998 16 10.6666C16 12.1333 15.4778 13.3889 14.4333 14.4333C13.3889 15.4778 12.1333 16 10.6667 16ZM1.33334 26.6666C0.95556 26.6666 0.638671 26.5386 0.382671 26.2826C0.126671 26.0266 -0.000884275 25.7102 4.61361e-06 25.3333V22.9333C4.61361e-06 22.1778 0.194671 21.4831 0.584005 20.8493C0.973338 20.2155 1.48978 19.7324 2.13334 19.4C3.51112 18.7111 4.91112 18.1942 6.33334 17.8493C7.75556 17.5044 9.20001 17.3324 10.6667 17.3333C12.1333 17.3333 13.5778 17.5058 15 17.8506C16.4222 18.1955 17.8222 18.712 19.2 19.4C19.8444 19.7333 20.3613 20.2169 20.7507 20.8506C21.14 21.4844 21.3342 22.1786 21.3333 22.9333V25.3333C21.3333 25.7111 21.2053 26.028 20.9493 26.284C20.6933 26.54 20.3769 26.6675 20 26.6666H1.33334ZM10.6667 13.3333C11.4 13.3333 12.028 13.072 12.5507 12.5493C13.0733 12.0266 13.3342 11.3991 13.3333 10.6666C13.3333 9.93331 13.072 9.30531 12.5493 8.78265C12.0267 8.25998 11.3991 7.99909 10.6667 7.99998C9.93334 7.99998 9.30534 8.26131 8.78267 8.78398C8.26 9.30665 7.99912 9.9342 8 10.6666C8 11.4 8.26134 12.028 8.784 12.5506C9.30667 13.0733 9.93423 13.3342 10.6667 13.3333ZM2.66667 24H18.6667V22.9333C18.6667 22.6889 18.6053 22.4666 18.4827 22.2666C18.36 22.0666 18.1991 21.9111 18 21.8C16.8 21.2 15.5889 20.7502 14.3667 20.4506C13.1444 20.1511 11.9111 20.0009 10.6667 20C9.42223 20 8.18889 20.1502 6.96667 20.4506C5.74445 20.7511 4.53334 21.2009 3.33334 21.8C3.13334 21.9111 2.972 22.0666 2.84934 22.2666C2.72667 22.4666 2.66578 22.6889 2.66667 22.9333V24Z" fill="#B50700"/>
</g>
<defs>
<clipPath id="clip0_1_468">
<rect width="32" height="32" fill="white"/>
</clipPath>
</defs>
</svg>
