<svg width="32" height="32" viewBox="0 0 32 32" fill="none" xmlns="http://www.w3.org/2000/svg">
<g id="material-symbols:stylus-laser-pointer">
<path id="Vector" d="M12 29.3333C10.8889 29.3333 9.94444 28.9444 9.16666 28.1666C8.38888 27.3889 7.99999 26.4444 7.99999 25.3333C7.99999 24.2222 8.38888 23.2778 9.16666 22.5C9.94444 21.7222 10.8889 21.3333 12 21.3333C13.1111 21.3333 14.0556 21.7222 14.8333 22.5C15.6111 23.2778 16 24.2222 16 25.3333C16 26.4444 15.6111 27.3889 14.8333 28.1666C14.0556 28.9444 13.1111 29.3333 12 29.3333ZM17.9667 24.7C17.8333 23.4778 17.3778 22.4 16.6 21.4666C15.8222 20.5333 14.8555 19.9 13.7 19.5666L17.2333 16H7.86666C7.15555 16 6.55555 15.7555 6.06666 15.2666C5.57777 14.7778 5.33333 14.1778 5.33333 13.4666C5.33333 13.0222 5.45022 12.6053 5.68399 12.216C5.91777 11.8266 6.22311 11.5102 6.59999 11.2666L22.8 1.56664C23.2 1.3222 23.6222 1.26086 24.0667 1.38264C24.5111 1.50442 24.8556 1.76575 25.1 2.16664C25.3444 2.56664 25.4058 2.98353 25.284 3.41731C25.1622 3.85108 24.912 4.18975 24.5333 4.43331L12 12H24.1333C24.8444 12 25.4444 12.2444 25.9333 12.7333C26.4222 13.2222 26.6667 13.8222 26.6667 14.5333C26.6667 14.9333 26.6169 15.328 26.5173 15.7173C26.4178 16.1066 26.2231 16.4453 25.9333 16.7333L17.9667 24.7Z" fill="#FFB637"/>
</g>
</svg>
