<svg width="32" height="32" viewBox="0 0 32 32" fill="none" xmlns="http://www.w3.org/2000/svg">
<g id="material-symbols:analytics-outline-rounded">
<path id="Vector" d="M6.66667 28C5.93334 28 5.30534 27.7387 4.78267 27.216C4.26 26.6933 3.99911 26.0658 4 25.3333V6.66667C4 5.93334 4.26134 5.30534 4.784 4.78267C5.30667 4.26 5.93422 3.99911 6.66667 4H25.3333C26.0667 4 26.6947 4.26134 27.2173 4.784C27.74 5.30667 28.0009 5.93422 28 6.66667V25.3333C28 26.0667 27.7387 26.6947 27.216 27.2173C26.6933 27.74 26.0658 28.0009 25.3333 28H6.66667ZM6.66667 25.3333H25.3333V6.66667H6.66667V25.3333ZM10.6667 22.6667C11.0444 22.6667 11.3613 22.5387 11.6173 22.2827C11.8733 22.0267 12.0009 21.7102 12 21.3333V17.3333C12 16.9556 11.872 16.6387 11.616 16.3827C11.36 16.1267 11.0436 15.9991 10.6667 16C10.2889 16 9.972 16.128 9.716 16.384C9.46 16.64 9.33245 16.9564 9.33334 17.3333V21.3333C9.33334 21.7111 9.46134 22.028 9.71734 22.284C9.97334 22.54 10.2898 22.6676 10.6667 22.6667ZM21.3333 22.6667C21.7111 22.6667 22.028 22.5387 22.284 22.2827C22.54 22.0267 22.6676 21.7102 22.6667 21.3333V10.6667C22.6667 10.2889 22.5387 9.972 22.2827 9.716C22.0267 9.46 21.7102 9.33245 21.3333 9.33334C20.9556 9.33334 20.6387 9.46134 20.3827 9.71734C20.1267 9.97334 19.9991 10.2898 20 10.6667V21.3333C20 21.7111 20.128 22.028 20.384 22.284C20.64 22.54 20.9564 22.6676 21.3333 22.6667ZM16 22.6667C16.3778 22.6667 16.6947 22.5387 16.9507 22.2827C17.2067 22.0267 17.3342 21.7102 17.3333 21.3333V20C17.3333 19.6222 17.2053 19.3053 16.9493 19.0493C16.6933 18.7933 16.3769 18.6658 16 18.6667C15.6222 18.6667 15.3053 18.7947 15.0493 19.0507C14.7933 19.3067 14.6658 19.6231 14.6667 20V21.3333C14.6667 21.7111 14.7947 22.028 15.0507 22.284C15.3067 22.54 15.6231 22.6676 16 22.6667ZM16 16C16.3778 16 16.6947 15.872 16.9507 15.616C17.2067 15.36 17.3342 15.0436 17.3333 14.6667C17.3333 14.2889 17.2053 13.972 16.9493 13.716C16.6933 13.46 16.3769 13.3324 16 13.3333C15.6222 13.3333 15.3053 13.4613 15.0493 13.7173C14.7933 13.9733 14.6658 14.2898 14.6667 14.6667C14.6667 15.0444 14.7947 15.3613 15.0507 15.6173C15.3067 15.8733 15.6231 16.0009 16 16Z" fill="#5EC3C5"/>
</g>
</svg>
