<svg width="32" height="32" viewBox="0 0 32 32" fill="none" xmlns="http://www.w3.org/2000/svg">
<g id="material-symbols:3p-outline">
<path id="Vector" d="M10.6667 18.6666H21.3333V17.9333C21.3333 16.9555 20.8444 16.1666 19.8667 15.5666C18.8889 14.9666 17.6 14.6666 16 14.6666C14.4 14.6666 13.1111 14.9666 12.1333 15.5666C11.1556 16.1666 10.6667 16.9555 10.6667 17.9333V18.6666ZM16 13.3333C16.7333 13.3333 17.3613 13.072 17.884 12.5493C18.4067 12.0266 18.6676 11.3991 18.6667 10.6666C18.6667 9.9333 18.4053 9.30529 17.8827 8.78263C17.36 8.25996 16.7324 7.99907 16 7.99996C15.2667 7.99996 14.6387 8.2613 14.116 8.78396C13.5933 9.30663 13.3324 9.93418 13.3333 10.6666C13.3333 11.4 13.5947 12.028 14.1173 12.5506C14.64 13.0733 15.2676 13.3342 16 13.3333ZM2.66667 29.3333V5.33329C2.66667 4.59996 2.92801 3.97196 3.45067 3.44929C3.97334 2.92663 4.60089 2.66574 5.33334 2.66663H26.6667C27.4 2.66663 28.028 2.92796 28.5507 3.45063C29.0733 3.97329 29.3342 4.60085 29.3333 5.33329V21.3333C29.3333 22.0666 29.072 22.6946 28.5493 23.2173C28.0267 23.74 27.3991 24.0009 26.6667 24H8.00001L2.66667 29.3333ZM5.33334 22.9L6.90001 21.3333H26.6667V5.33329H5.33334V22.9Z" fill="#B50700"/>
</g>
</svg>
