<svg width="32" height="32" viewBox="0 0 32 32" fill="none" xmlns="http://www.w3.org/2000/svg">
<g id="material-symbols:cached-rounded">
<path id="Vector" d="M16.0667 26.6667C13.0889 26.6667 10.5555 25.6334 8.46666 23.5667C6.37777 21.5 5.33333 18.9778 5.33333 16V15.7667L4.13333 16.9667C3.88888 17.2112 3.57777 17.3334 3.19999 17.3334C2.82222 17.3334 2.51111 17.2112 2.26666 16.9667C2.02222 16.7223 1.89999 16.4112 1.89999 16.0334C1.89999 15.6556 2.02222 15.3445 2.26666 15.1L5.73333 11.6334C5.86666 11.5 6.01111 11.4058 6.16666 11.3507C6.32222 11.2956 6.48888 11.2676 6.66666 11.2667C6.84444 11.2667 7.01111 11.2947 7.16666 11.3507C7.32222 11.4067 7.46666 11.5009 7.59999 11.6334L11.0667 15.1C11.3111 15.3445 11.4333 15.6556 11.4333 16.0334C11.4333 16.4112 11.3111 16.7223 11.0667 16.9667C10.8222 17.2112 10.5111 17.3334 10.1333 17.3334C9.75555 17.3334 9.44444 17.2112 9.19999 16.9667L7.99999 15.7667V16C7.99999 18.2223 8.78355 20.1112 10.3507 21.6667C11.9178 23.2223 13.8231 24 16.0667 24C16.5111 24 16.9444 23.9609 17.3667 23.8827C17.7889 23.8045 18.2111 23.688 18.6333 23.5334C18.8556 23.4445 19.0942 23.4223 19.3493 23.4667C19.6044 23.5112 19.8213 23.6223 20 23.8C20.4 24.2 20.5613 24.628 20.484 25.084C20.4067 25.54 20.112 25.8565 19.6 26.0334C19.0222 26.2334 18.4391 26.3889 17.8507 26.5C17.2622 26.6112 16.6676 26.6667 16.0667 26.6667ZM25.3333 20.7334C25.1556 20.7334 24.9889 20.7054 24.8333 20.6494C24.6778 20.5934 24.5333 20.4992 24.4 20.3667L20.9333 16.9C20.6889 16.6556 20.5667 16.3445 20.5667 15.9667C20.5667 15.5889 20.6889 15.2778 20.9333 15.0334C21.1778 14.7889 21.4889 14.6667 21.8667 14.6667C22.2444 14.6667 22.5555 14.7889 22.8 15.0334L24 16.2334V16C24 13.7778 23.2164 11.8889 21.6493 10.3334C20.0822 8.77782 18.1769 8.00004 15.9333 8.00004C15.4889 8.00004 15.0555 8.03915 14.6333 8.11737C14.2111 8.1956 13.7889 8.31204 13.3667 8.46671C13.1444 8.5556 12.9058 8.57782 12.6507 8.53337C12.3955 8.48893 12.1787 8.37782 12 8.20004C11.6 7.80004 11.4387 7.37204 11.516 6.91604C11.5933 6.46004 11.888 6.1436 12.4 5.96671C12.9778 5.76671 13.5613 5.61115 14.1507 5.50004C14.74 5.38893 15.3342 5.33337 15.9333 5.33337C18.9111 5.33337 21.4444 6.36671 23.5333 8.43337C25.6222 10.5 26.6667 13.0223 26.6667 16V16.2334L27.8667 15.0334C28.1111 14.7889 28.4222 14.6667 28.8 14.6667C29.1778 14.6667 29.4889 14.7889 29.7333 15.0334C29.9778 15.2778 30.1 15.5889 30.1 15.9667C30.1 16.3445 29.9778 16.6556 29.7333 16.9L26.2667 20.3667C26.1333 20.5 25.9889 20.5947 25.8333 20.6507C25.6778 20.7067 25.5111 20.7343 25.3333 20.7334Z" fill="#FFB637"/>
</g>
</svg>
